<mxfile host="65bd71144e">
    <diagram id="awKXj3tKpNbmUpELGdFw" name="Page-1">
        <mxGraphModel dx="1900" dy="1711" grid="1" gridSize="10" guides="1" tooltips="1" connect="1" arrows="1" fold="1" page="1" pageScale="1" pageWidth="850" pageHeight="1100" math="0" shadow="0">
            <root>
                <mxCell id="0"/>
                <mxCell id="1" parent="0"/>
                <mxCell id="111" value="SAC Algorithm general arquitecture" style="swimlane;whiteSpace=wrap;html=1;startSize=20;" parent="1" vertex="1" collapsed="1">
                    <mxGeometry x="-670" y="-1090" width="230" height="30" as="geometry">
                        <mxRectangle x="-670" y="-1090" width="520" height="370" as="alternateBounds"/>
                    </mxGeometry>
                </mxCell>
                <mxCell id="112" value="Entorno" style="swimlane;startSize=10;glass=0;dashed=1;dashPattern=8 8;opacity=70;" parent="111" vertex="1">
                    <mxGeometry x="11" y="30" width="160" height="140" as="geometry"/>
                </mxCell>
                <mxCell id="113" style="edgeStyle=none;html=1;exitX=1;exitY=0.75;exitDx=0;exitDy=0;entryX=0;entryY=0.5;entryDx=0;entryDy=0;" parent="112" source="115" target="117" edge="1">
                    <mxGeometry relative="1" as="geometry">
                        <Array as="points">
                            <mxPoint x="79" y="90"/>
                        </Array>
                    </mxGeometry>
                </mxCell>
                <mxCell id="114" style="edgeStyle=none;html=1;exitX=1;exitY=0.25;exitDx=0;exitDy=0;" parent="112" source="115" target="116" edge="1">
                    <mxGeometry relative="1" as="geometry">
                        <Array as="points">
                            <mxPoint x="79" y="50"/>
                        </Array>
                    </mxGeometry>
                </mxCell>
                <mxCell id="115" value="P&lt;sub&gt;t&lt;/sub&gt;" style="rounded=0;whiteSpace=wrap;html=1;fontFamily=Helvetica;fontSize=11;fontColor=default;labelBackgroundColor=default;" parent="112" vertex="1">
                    <mxGeometry x="9" y="45" width="50" height="50" as="geometry"/>
                </mxCell>
                <mxCell id="116" value="&lt;span style=&quot;color: rgb(0, 0, 0); font-size: 11px; background-color: rgb(255, 255, 255);&quot;&gt;S&lt;/span&gt;&lt;sub style=&quot;scrollbar-color: light-dark(#e2e2e2, #4b4b4b)&lt;br/&gt;&#x9;&#x9;&#x9;&#x9;&#x9;light-dark(#fbfbfb, var(--dark-panel-color));&quot;&gt;t&lt;/sub&gt;" style="text;html=1;align=center;verticalAlign=middle;whiteSpace=wrap;rounded=0;" parent="112" vertex="1">
                    <mxGeometry x="100" y="30.5" width="40" height="39.5" as="geometry"/>
                </mxCell>
                <mxCell id="117" value="&lt;span style=&quot;color: rgb(63, 63, 63); font-size: 11px; background-color: rgb(255, 255, 255);&quot;&gt;S&lt;/span&gt;&lt;sub style=&quot;color: rgb(63, 63, 63); scrollbar-color: light-dark(#e2e2e2, #4b4b4b)&lt;br/&gt;&#x9;&#x9;&#x9;&#x9;&#x9;light-dark(#fbfbfb, var(--dark-panel-color)); background-color: rgb(255, 255, 255);&quot;&gt;t+1&lt;/sub&gt;" style="text;html=1;align=center;verticalAlign=middle;whiteSpace=wrap;rounded=0;" parent="112" vertex="1">
                    <mxGeometry x="100" y="70" width="40" height="40" as="geometry"/>
                </mxCell>
                <mxCell id="118" value="Actor" style="swimlane;startSize=10;glass=0;dashed=1;dashPattern=8 8;opacity=70;" parent="111" vertex="1">
                    <mxGeometry x="180" y="30" width="160" height="140" as="geometry"/>
                </mxCell>
                <mxCell id="119" style="edgeStyle=none;html=1;" parent="118" source="120" target="121" edge="1">
                    <mxGeometry relative="1" as="geometry"/>
                </mxCell>
                <mxCell id="120" value="&lt;font style=&quot;font-size: 20px;&quot;&gt;𝝿&lt;/font&gt;&lt;font style=&quot;font-size: 10px;&quot;&gt;(S)&lt;/font&gt;" style="rounded=1;whiteSpace=wrap;html=1;" parent="118" vertex="1">
                    <mxGeometry x="40" y="48" width="40" height="42.5" as="geometry"/>
                </mxCell>
                <mxCell id="121" value="A&lt;sub&gt;t&lt;/sub&gt;" style="text;html=1;align=center;verticalAlign=middle;whiteSpace=wrap;rounded=0;" parent="118" vertex="1">
                    <mxGeometry x="100" y="50" width="40" height="40" as="geometry"/>
                </mxCell>
                <mxCell id="122" value="Critico" style="swimlane;startSize=10;glass=0;dashed=1;dashPattern=8 8;opacity=70;" parent="111" vertex="1">
                    <mxGeometry x="350" y="30" width="160" height="140" as="geometry"/>
                </mxCell>
                <mxCell id="123" style="edgeStyle=orthogonalEdgeStyle;shape=connector;rounded=1;html=1;strokeColor=default;align=center;verticalAlign=middle;fontFamily=Helvetica;fontSize=11;fontColor=default;labelBackgroundColor=default;endArrow=classic;" parent="122" source="124" target="125" edge="1">
                    <mxGeometry relative="1" as="geometry"/>
                </mxCell>
                <mxCell id="124" value="&lt;font style=&quot;font-size: 15px;&quot;&gt;R&lt;/font&gt;&lt;font style=&quot;font-size: 10px;&quot;&gt;(&lt;font style=&quot;&quot;&gt;S,A&lt;/font&gt;)&lt;/font&gt;" style="rounded=1;whiteSpace=wrap;html=1;fontFamily=Helvetica;fontSize=11;fontColor=default;labelBackgroundColor=default;" parent="122" vertex="1">
                    <mxGeometry x="30" y="50.5" width="40" height="40" as="geometry"/>
                </mxCell>
                <mxCell id="125" value="&lt;sub&gt;&lt;font color=&quot;#000000&quot;&gt;&lt;span style=&quot;font-size: 12px;&quot;&gt;R&lt;/span&gt;&lt;/font&gt;t&lt;/sub&gt;" style="text;html=1;align=center;verticalAlign=middle;whiteSpace=wrap;rounded=0;" parent="122" vertex="1">
                    <mxGeometry x="90" y="50" width="40" height="40" as="geometry"/>
                </mxCell>
                <mxCell id="126" value="Buffer" style="swimlane;startSize=15;glass=0;dashed=1;dashPattern=8 8;opacity=70;labelBorderColor=none;labelPosition=center;verticalLabelPosition=middle;align=center;verticalAlign=middle;" parent="111" vertex="1">
                    <mxGeometry x="10" y="185" width="160" height="175" as="geometry"/>
                </mxCell>
                <mxCell id="127" value="&lt;span style=&quot;color: rgb(0, 0, 0);&quot;&gt;S&lt;/span&gt;&lt;sub style=&quot;scrollbar-color: light-dark(#e2e2e2, #4b4b4b)&lt;br/&gt;&#x9;&#x9;&#x9;&#x9;&#x9;light-dark(#fbfbfb, var(--dark-panel-color));&quot;&gt;&amp;nbsp;&lt;/sub&gt;&lt;span style=&quot;scrollbar-color: light-dark(#e2e2e2, #4b4b4b)&lt;br/&gt;&#x9;&#x9;&#x9;&#x9;&#x9;light-dark(#fbfbfb, var(--dark-panel-color)); font-size: 10px; color: rgb(63, 63, 63);&quot;&gt;&lt;sub&gt;𝒯&lt;/sub&gt;,&lt;/span&gt;&lt;span style=&quot;scrollbar-color: light-dark(#e2e2e2, #4b4b4b)&lt;br/&gt;&#x9;&#x9;&#x9;&#x9;&#x9;light-dark(#fbfbfb, var(--dark-panel-color)); color: rgb(63, 63, 63);&quot;&gt;A&lt;/span&gt;&lt;span style=&quot;scrollbar-color: light-dark(#e2e2e2, #4b4b4b)&lt;br/&gt;&#x9;&#x9;&#x9;&#x9;&#x9;light-dark(#fbfbfb, var(--dark-panel-color)); font-size: 10px; color: rgb(63, 63, 63);&quot;&gt;&lt;sub&gt;𝒯&lt;/sub&gt;,&lt;/span&gt;&lt;span style=&quot;scrollbar-color: light-dark(#e2e2e2, #4b4b4b)&lt;br/&gt;&#x9;&#x9;&#x9;&#x9;&#x9;light-dark(#fbfbfb, var(--dark-panel-color)); color: rgb(63, 63, 63);&quot;&gt;R&lt;/span&gt;&lt;span style=&quot;scrollbar-color: light-dark(#e2e2e2, #4b4b4b)&lt;br/&gt;&#x9;&#x9;&#x9;&#x9;&#x9;light-dark(#fbfbfb, var(--dark-panel-color)); font-size: 10px; color: rgb(63, 63, 63);&quot;&gt;&lt;sub&gt;𝒯&lt;/sub&gt;&lt;/span&gt;" style="shape=dataStorage;whiteSpace=wrap;html=1;fixedSize=1;size=10;" parent="126" vertex="1">
                    <mxGeometry x="26" y="30" width="110" height="80" as="geometry"/>
                </mxCell>
                <mxCell id="128" value="&lt;span style=&quot;scrollbar-color: light-dark(#e2e2e2, #4b4b4b)&lt;br/&gt;&#x9;&#x9;&#x9;&#x9;&#x9;light-dark(#fbfbfb, var(--dark-panel-color)); color: rgb(0, 0, 0);&quot;&gt;S&lt;sub&gt;B&lt;/sub&gt;&lt;/span&gt;&lt;span style=&quot;scrollbar-color: light-dark(#e2e2e2, #4b4b4b)&lt;br/&gt;&#x9;&#x9;&#x9;&#x9;&#x9;light-dark(#fbfbfb, var(--dark-panel-color)); font-size: 10px; color: rgb(63, 63, 63);&quot;&gt;,&lt;/span&gt;&lt;span style=&quot;scrollbar-color: light-dark(#e2e2e2, #4b4b4b)&lt;br/&gt;&#x9;&#x9;&#x9;&#x9;&#x9;light-dark(#fbfbfb, var(--dark-panel-color)); color: rgb(63, 63, 63);&quot;&gt;A&lt;sub&gt;B&lt;/sub&gt;&lt;/span&gt;&lt;span style=&quot;scrollbar-color: light-dark(#e2e2e2, #4b4b4b)&lt;br/&gt;&#x9;&#x9;&#x9;&#x9;&#x9;light-dark(#fbfbfb, var(--dark-panel-color)); font-size: 10px; color: rgb(63, 63, 63);&quot;&gt;,&lt;/span&gt;&lt;span style=&quot;scrollbar-color: light-dark(#e2e2e2, #4b4b4b)&lt;br/&gt;&#x9;&#x9;&#x9;&#x9;&#x9;light-dark(#fbfbfb, var(--dark-panel-color)); color: rgb(63, 63, 63);&quot;&gt;R&lt;sub&gt;B&lt;/sub&gt;&lt;/span&gt;" style="text;html=1;align=center;verticalAlign=middle;whiteSpace=wrap;rounded=0;" parent="126" vertex="1">
                    <mxGeometry x="41" y="125" width="80" height="40" as="geometry"/>
                </mxCell>
                <mxCell id="129" style="edgeStyle=orthogonalEdgeStyle;html=1;exitX=1;exitY=0.75;exitDx=0;exitDy=0;entryX=0.5;entryY=0;entryDx=0;entryDy=0;" parent="126" source="127" target="128" edge="1">
                    <mxGeometry relative="1" as="geometry">
                        <Array as="points">
                            <mxPoint x="146" y="90"/>
                            <mxPoint x="146" y="115"/>
                            <mxPoint x="81" y="115"/>
                        </Array>
                    </mxGeometry>
                </mxCell>
                <mxCell id="130" value="Off-Policy training algorithm" style="swimlane;startSize=15;glass=0;dashed=1;dashPattern=8 8;opacity=70;" parent="111" vertex="1">
                    <mxGeometry x="190" y="185" width="320" height="175" as="geometry"/>
                </mxCell>
                <mxCell id="131" style="edgeStyle=none;html=1;exitX=1;exitY=0.5;exitDx=0;exitDy=0;" parent="130" source="132" target="136" edge="1">
                    <mxGeometry relative="1" as="geometry"/>
                </mxCell>
                <mxCell id="132" value="Actualizacion Parametros Redes Q&lt;sub&gt;ⲫ&lt;/sub&gt;" style="rounded=1;whiteSpace=wrap;html=1;arcSize=23;" parent="130" vertex="1">
                    <mxGeometry x="40" y="75" width="80" height="80" as="geometry"/>
                </mxCell>
                <mxCell id="133" style="edgeStyle=none;html=1;exitX=0.5;exitY=0;exitDx=0;exitDy=0;" parent="130" source="134" target="137" edge="1">
                    <mxGeometry relative="1" as="geometry"/>
                </mxCell>
                <mxCell id="134" value="Actualizacion de red&amp;nbsp;&lt;span style=&quot;color: rgb(63, 63, 63); font-size: 20px;&quot;&gt;𝝿&lt;/span&gt;&lt;span style=&quot;font-size: 20px;&quot;&gt;&lt;sub&gt;𝟇&lt;/sub&gt;&lt;/span&gt;" style="rounded=1;whiteSpace=wrap;html=1;" parent="130" vertex="1">
                    <mxGeometry x="200" y="75" width="80" height="80" as="geometry"/>
                </mxCell>
                <mxCell id="135" style="edgeStyle=none;html=1;exitX=1;exitY=0.5;exitDx=0;exitDy=0;entryX=0;entryY=0.5;entryDx=0;entryDy=0;" parent="130" source="136" target="134" edge="1">
                    <mxGeometry relative="1" as="geometry"/>
                </mxCell>
                <mxCell id="136" value="&lt;span style=&quot;color: rgb(0, 0, 0);&quot;&gt;Q&lt;sub&gt;ⲫ&lt;/sub&gt;&lt;br&gt;&lt;span style=&quot;scrollbar-color: light-dark(#e2e2e2, #4b4b4b)&lt;br/&gt;&#x9;&#x9;&#x9;&#x9;&#x9;light-dark(#fbfbfb, var(--dark-panel-color)); color: rgb(0, 0, 0);&quot;&gt;S&lt;sub style=&quot;scrollbar-color: light-dark(#e2e2e2, #4b4b4b)&lt;br/&gt;&#x9;&#x9;&#x9;&#x9;&#x9;light-dark(#fbfbfb, var(--dark-panel-color));&quot;&gt;b&lt;/sub&gt;&lt;/span&gt;&lt;span style=&quot;scrollbar-color: light-dark(#e2e2e2, #4b4b4b)&lt;br/&gt;&#x9;&#x9;&#x9;&#x9;&#x9;light-dark(#fbfbfb, var(--dark-panel-color)); font-size: 10px; color: rgb(63, 63, 63);&quot;&gt;,&lt;/span&gt;&lt;br&gt;&lt;/span&gt;" style="text;html=1;align=center;verticalAlign=middle;whiteSpace=wrap;rounded=0;" parent="130" vertex="1">
                    <mxGeometry x="140" y="95" width="40" height="40" as="geometry"/>
                </mxCell>
                <mxCell id="137" value="&lt;span style=&quot;scrollbar-color: light-dark(#e2e2e2, #4b4b4b)&lt;br/&gt;&#x9;&#x9;&#x9;&#x9;&#x9;light-dark(#fbfbfb, var(--dark-panel-color)); font-size: 20px; color: rgb(63, 63, 63);&quot;&gt;&lt;font style=&quot;scrollbar-color: light-dark(#e2e2e2, #4b4b4b)&lt;br/&gt;&#x9;&#x9;&#x9;&#x9;&#x9;light-dark(#fbfbfb, var(--dark-panel-color));&quot;&gt;𝝿&lt;/font&gt;&lt;font style=&quot;scrollbar-color: light-dark(#e2e2e2, #4b4b4b)&lt;br/&gt;&#x9;&#x9;&#x9;&#x9;&#x9;light-dark(#fbfbfb, var(--dark-panel-color)); font-size: 10px;&quot;&gt;(S)&amp;nbsp; &amp;nbsp; &amp;nbsp;&lt;/font&gt;𝝿&lt;/span&gt;&lt;span style=&quot;scrollbar-color: light-dark(#e2e2e2, #4b4b4b)&lt;br/&gt;&#x9;&#x9;&#x9;&#x9;&#x9;light-dark(#fbfbfb, var(--dark-panel-color)); font-size: 20px;&quot;&gt;&lt;sub style=&quot;scrollbar-color: light-dark(#e2e2e2, #4b4b4b)&lt;br/&gt;&#x9;&#x9;&#x9;&#x9;&#x9;light-dark(#fbfbfb, var(--dark-panel-color));&quot;&gt;𝟇&lt;/sub&gt;&lt;/span&gt;" style="text;html=1;align=center;verticalAlign=middle;whiteSpace=wrap;rounded=0;" parent="130" vertex="1">
                    <mxGeometry x="200" y="15" width="80" height="40" as="geometry"/>
                </mxCell>
                <mxCell id="138" style="edgeStyle=orthogonalEdgeStyle;shape=connector;rounded=1;html=1;exitX=1;exitY=0.5;exitDx=0;exitDy=0;entryX=0;entryY=0.5;entryDx=0;entryDy=0;strokeColor=default;align=center;verticalAlign=middle;fontFamily=Helvetica;fontSize=11;fontColor=default;labelBackgroundColor=default;endArrow=classic;" parent="111" source="121" target="124" edge="1">
                    <mxGeometry relative="1" as="geometry"/>
                </mxCell>
                <mxCell id="139" style="edgeStyle=orthogonalEdgeStyle;html=1;exitX=0.5;exitY=1;exitDx=0;exitDy=0;entryX=1;entryY=0.25;entryDx=0;entryDy=0;" parent="111" source="121" target="127" edge="1">
                    <mxGeometry relative="1" as="geometry">
                        <Array as="points">
                            <mxPoint x="300" y="160"/>
                            <mxPoint x="160" y="160"/>
                            <mxPoint x="160" y="235"/>
                        </Array>
                    </mxGeometry>
                </mxCell>
                <mxCell id="140" style="edgeStyle=orthogonalEdgeStyle;html=1;exitX=0.5;exitY=1;exitDx=0;exitDy=0;entryX=1;entryY=0.5;entryDx=0;entryDy=0;" parent="111" source="125" target="127" edge="1">
                    <mxGeometry relative="1" as="geometry">
                        <Array as="points">
                            <mxPoint x="460" y="180"/>
                            <mxPoint x="170" y="180"/>
                            <mxPoint x="170" y="255"/>
                        </Array>
                    </mxGeometry>
                </mxCell>
                <mxCell id="141" style="edgeStyle=none;html=1;exitX=1;exitY=0.5;exitDx=0;exitDy=0;entryX=0.5;entryY=0;entryDx=0;entryDy=0;" parent="111" source="137" target="120" edge="1">
                    <mxGeometry relative="1" as="geometry">
                        <Array as="points">
                            <mxPoint x="480" y="220"/>
                            <mxPoint x="480" y="60"/>
                            <mxPoint x="240" y="60"/>
                        </Array>
                    </mxGeometry>
                </mxCell>
                <mxCell id="142" style="edgeStyle=none;html=1;exitX=1;exitY=0.5;exitDx=0;exitDy=0;entryX=0;entryY=0.5;entryDx=0;entryDy=0;" parent="111" source="116" target="120" edge="1">
                    <mxGeometry relative="1" as="geometry">
                        <Array as="points">
                            <mxPoint x="190" y="80"/>
                            <mxPoint x="190" y="99"/>
                        </Array>
                    </mxGeometry>
                </mxCell>
                <mxCell id="143" style="edgeStyle=orthogonalEdgeStyle;html=1;entryX=0.5;entryY=1;entryDx=0;entryDy=0;" parent="111" source="117" target="124" edge="1">
                    <mxGeometry relative="1" as="geometry">
                        <Array as="points">
                            <mxPoint x="190" y="120"/>
                            <mxPoint x="190" y="140"/>
                            <mxPoint x="400" y="140"/>
                        </Array>
                    </mxGeometry>
                </mxCell>
                <mxCell id="144" style="edgeStyle=orthogonalEdgeStyle;html=1;exitX=0.5;exitY=1;exitDx=0;exitDy=0;entryX=0.5;entryY=1;entryDx=0;entryDy=0;" parent="111" source="121" target="115" edge="1">
                    <mxGeometry relative="1" as="geometry">
                        <Array as="points">
                            <mxPoint x="300" y="160"/>
                            <mxPoint x="45" y="160"/>
                        </Array>
                    </mxGeometry>
                </mxCell>
                <mxCell id="145" style="edgeStyle=orthogonalEdgeStyle;html=1;entryX=0.75;entryY=0;entryDx=0;entryDy=0;" parent="111" source="117" target="127" edge="1">
                    <mxGeometry relative="1" as="geometry"/>
                </mxCell>
                <mxCell id="146" style="edgeStyle=orthogonalEdgeStyle;html=1;exitX=1;exitY=0.5;exitDx=0;exitDy=0;" parent="111" source="128" target="132" edge="1">
                    <mxGeometry relative="1" as="geometry">
                        <Array as="points">
                            <mxPoint x="180" y="330"/>
                            <mxPoint x="180" y="310"/>
                        </Array>
                    </mxGeometry>
                </mxCell>
                <mxCell id="147" value="Vista Detallada SAC" style="swimlane;startSize=20;" parent="1" vertex="1">
                    <mxGeometry x="-518" y="-655" width="1730" height="1120" as="geometry">
                        <mxRectangle x="-518" y="-655" width="216" height="30" as="alternateBounds"/>
                    </mxGeometry>
                </mxCell>
                <mxCell id="108" value="" style="shape=parallelogram;perimeter=parallelogramPerimeter;whiteSpace=wrap;html=1;fixedSize=1;" parent="147" vertex="1">
                    <mxGeometry x="20" y="750" width="430" height="64" as="geometry"/>
                </mxCell>
                <mxCell id="101" value="" style="shape=parallelogram;perimeter=parallelogramPerimeter;whiteSpace=wrap;html=1;fixedSize=1;" parent="147" vertex="1">
                    <mxGeometry x="564" y="1023" width="530" height="80" as="geometry"/>
                </mxCell>
                <mxCell id="100" style="edgeStyle=none;html=1;exitX=1;exitY=0.5;exitDx=0;exitDy=0;entryX=0;entryY=0.5;entryDx=0;entryDy=0;" parent="147" source="90" target="97" edge="1">
                    <mxGeometry relative="1" as="geometry"/>
                </mxCell>
                <mxCell id="90" value="" style="rounded=1;whiteSpace=wrap;html=1;" parent="147" vertex="1">
                    <mxGeometry x="586.5" y="847.5" width="60" height="60" as="geometry"/>
                </mxCell>
                <mxCell id="87" value="" style="shape=parallelogram;perimeter=parallelogramPerimeter;whiteSpace=wrap;html=1;fixedSize=1;" parent="147" vertex="1">
                    <mxGeometry x="578.6300000000001" y="735" width="407.87" height="70" as="geometry"/>
                </mxCell>
                <mxCell id="82" value="" style="edgeStyle=none;html=1;" parent="147" source="75" target="81" edge="1">
                    <mxGeometry relative="1" as="geometry"/>
                </mxCell>
                <mxCell id="75" value="" style="rounded=1;whiteSpace=wrap;html=1;" parent="147" vertex="1">
                    <mxGeometry x="1231.5" y="949" width="120" height="60" as="geometry"/>
                </mxCell>
                <mxCell id="83" value="" style="edgeStyle=none;html=1;" parent="147" source="72" target="80" edge="1">
                    <mxGeometry relative="1" as="geometry"/>
                </mxCell>
                <mxCell id="72" value="" style="rounded=1;whiteSpace=wrap;html=1;" parent="147" vertex="1">
                    <mxGeometry x="1231.5" y="864" width="120" height="60" as="geometry"/>
                </mxCell>
                <mxCell id="73" style="edgeStyle=none;html=1;exitX=0;exitY=0.5;exitDx=0;exitDy=0;entryX=0;entryY=0.5;entryDx=0;entryDy=0;" parent="147" source="68" target="72" edge="1">
                    <mxGeometry relative="1" as="geometry">
                        <Array as="points">
                            <mxPoint x="1186.5" y="770"/>
                            <mxPoint x="1186.5" y="894"/>
                        </Array>
                    </mxGeometry>
                </mxCell>
                <mxCell id="76" style="edgeStyle=none;html=1;exitX=0;exitY=0.5;exitDx=0;exitDy=0;entryX=0;entryY=0.5;entryDx=0;entryDy=0;" parent="147" source="68" target="75" edge="1">
                    <mxGeometry relative="1" as="geometry">
                        <Array as="points">
                            <mxPoint x="1186.5" y="770"/>
                            <mxPoint x="1186.5" y="979"/>
                        </Array>
                    </mxGeometry>
                </mxCell>
                <mxCell id="68" value="" style="shape=parallelogram;perimeter=parallelogramPerimeter;whiteSpace=wrap;html=1;fixedSize=1;" parent="147" vertex="1">
                    <mxGeometry x="1226.5" y="740" width="455" height="60" as="geometry"/>
                </mxCell>
                <mxCell id="57" value="" style="edgeStyle=none;html=1;" parent="147" source="54" target="56" edge="1">
                    <mxGeometry relative="1" as="geometry"/>
                </mxCell>
                <mxCell id="106" style="edgeStyle=none;html=1;entryX=1;entryY=0.5;entryDx=0;entryDy=0;" parent="147" source="54" target="105" edge="1">
                    <mxGeometry relative="1" as="geometry">
                        <Array as="points">
                            <mxPoint x="597.5" y="650"/>
                        </Array>
                    </mxGeometry>
                </mxCell>
                <mxCell id="54" value="" style="rounded=1;whiteSpace=wrap;html=1;" parent="147" vertex="1">
                    <mxGeometry x="535.5699999999997" y="510" width="123.62" height="60" as="geometry"/>
                </mxCell>
                <mxCell id="49" value="" style="rounded=1;whiteSpace=wrap;html=1;" parent="147" vertex="1">
                    <mxGeometry x="532.8800000000001" y="390" width="123.62" height="60" as="geometry"/>
                </mxCell>
                <mxCell id="46" style="edgeStyle=none;html=1;exitX=0;exitY=0.5;exitDx=0;exitDy=0;entryX=0;entryY=0.5;entryDx=0;entryDy=0;" parent="147" source="37" target="41" edge="1">
                    <mxGeometry relative="1" as="geometry">
                        <mxPoint x="456.5" y="310" as="targetPoint"/>
                        <Array as="points">
                            <mxPoint x="456.5" y="150"/>
                            <mxPoint x="456.5" y="308"/>
                        </Array>
                    </mxGeometry>
                </mxCell>
                <mxCell id="51" style="edgeStyle=none;html=1;entryX=0;entryY=0.5;entryDx=0;entryDy=0;" parent="147" source="37" target="49" edge="1">
                    <mxGeometry relative="1" as="geometry">
                        <Array as="points">
                            <mxPoint x="456.5" y="150"/>
                            <mxPoint x="456.5" y="420"/>
                        </Array>
                    </mxGeometry>
                </mxCell>
                <mxCell id="60" style="edgeStyle=none;html=1;exitX=0;exitY=0.5;exitDx=0;exitDy=0;entryX=0;entryY=0.5;entryDx=0;entryDy=0;" parent="147" source="37" target="54" edge="1">
                    <mxGeometry relative="1" as="geometry">
                        <Array as="points">
                            <mxPoint x="456.5" y="150"/>
                            <mxPoint x="456.5" y="540"/>
                        </Array>
                    </mxGeometry>
                </mxCell>
                <mxCell id="37" value="" style="shape=parallelogram;perimeter=parallelogramPerimeter;whiteSpace=wrap;html=1;fixedSize=1;" parent="147" vertex="1">
                    <mxGeometry x="504" y="95" width="430" height="110" as="geometry"/>
                </mxCell>
                <mxCell id="9" style="edgeStyle=none;html=1;exitX=0.5;exitY=1;exitDx=0;exitDy=0;entryX=0.5;entryY=0;entryDx=0;entryDy=0;" parent="147" source="2" target="3" edge="1">
                    <mxGeometry relative="1" as="geometry"/>
                </mxCell>
                <mxCell id="29" style="edgeStyle=none;html=1;entryX=0;entryY=0.5;entryDx=0;entryDy=0;" parent="147" source="2" target="27" edge="1">
                    <mxGeometry relative="1" as="geometry"/>
                </mxCell>
                <mxCell id="30" style="edgeStyle=none;html=1;exitX=1;exitY=0.5;exitDx=0;exitDy=0;entryX=0;entryY=0.5;entryDx=0;entryDy=0;" parent="147" target="26" edge="1">
                    <mxGeometry relative="1" as="geometry">
                        <mxPoint x="1486.5" y="150" as="sourcePoint"/>
                        <mxPoint x="1616.5" y="50" as="targetPoint"/>
                        <Array as="points">
                            <mxPoint x="1486.5" y="50"/>
                        </Array>
                    </mxGeometry>
                </mxCell>
                <mxCell id="31" style="edgeStyle=none;html=1;exitX=1;exitY=0.5;exitDx=0;exitDy=0;entryX=0;entryY=0.5;entryDx=0;entryDy=0;" parent="147" target="28" edge="1">
                    <mxGeometry relative="1" as="geometry">
                        <mxPoint x="1486.5" y="150" as="sourcePoint"/>
                        <mxPoint x="1626.5" y="250" as="targetPoint"/>
                        <Array as="points">
                            <mxPoint x="1486.5" y="250"/>
                        </Array>
                    </mxGeometry>
                </mxCell>
                <mxCell id="34" style="edgeStyle=none;html=1;exitX=0;exitY=0.5;exitDx=0;exitDy=0;entryX=1;entryY=0.5;entryDx=0;entryDy=0;" parent="147" source="2" target="33" edge="1">
                    <mxGeometry relative="1" as="geometry"/>
                </mxCell>
                <mxCell id="2" value="&lt;font style=&quot;font-size: 24px;&quot;&gt;Soft Actor Critic&lt;/font&gt;" style="rounded=1;whiteSpace=wrap;html=1;fontFamily=cascadia code;fillColor=#f8cecc;strokeColor=#b85450;" parent="147" vertex="1">
                    <mxGeometry x="1236.5" y="100" width="140" height="100" as="geometry"/>
                </mxCell>
                <mxCell id="10" style="edgeStyle=none;html=1;entryX=0.5;entryY=0;entryDx=0;entryDy=0;" parent="147" source="3" target="5" edge="1">
                    <mxGeometry relative="1" as="geometry"/>
                </mxCell>
                <mxCell id="11" style="edgeStyle=none;html=1;exitX=0;exitY=0.5;exitDx=0;exitDy=0;entryX=0.5;entryY=0;entryDx=0;entryDy=0;" parent="147" edge="1">
                    <mxGeometry relative="1" as="geometry">
                        <mxPoint x="1250" y="320" as="sourcePoint"/>
                        <mxPoint x="1070" y="400" as="targetPoint"/>
                        <Array as="points">
                            <mxPoint x="1070.5" y="320"/>
                        </Array>
                    </mxGeometry>
                </mxCell>
                <mxCell id="12" style="edgeStyle=none;html=1;entryX=0.5;entryY=0;entryDx=0;entryDy=0;" parent="147" source="3" target="6" edge="1">
                    <mxGeometry relative="1" as="geometry">
                        <Array as="points">
                            <mxPoint x="1576.5" y="320"/>
                        </Array>
                    </mxGeometry>
                </mxCell>
                <mxCell id="3" value="Redes neuronales principales" style="rounded=1;whiteSpace=wrap;html=1;fontFamily=cascadia code;fillColor=#d5e8d4;strokeColor=#82b366;" parent="147" vertex="1">
                    <mxGeometry x="1246.5" y="290" width="120" height="60" as="geometry"/>
                </mxCell>
                <mxCell id="18" style="edgeStyle=none;html=1;entryX=0.5;entryY=0;entryDx=0;entryDy=0;" parent="147" source="4" target="13" edge="1">
                    <mxGeometry relative="1" as="geometry"/>
                </mxCell>
                <mxCell id="104" style="edgeStyle=none;html=1;exitX=0;exitY=0.5;exitDx=0;exitDy=0;entryX=1;entryY=0.5;entryDx=0;entryDy=0;" parent="147" source="4" target="85" edge="1">
                    <mxGeometry relative="1" as="geometry">
                        <Array as="points">
                            <mxPoint x="936.5" y="430"/>
                            <mxPoint x="936.5" y="650"/>
                        </Array>
                    </mxGeometry>
                </mxCell>
                <mxCell id="4" value="Críticos" style="rounded=1;whiteSpace=wrap;html=1;fontFamily=cascadia code;fillColor=#ffe6cc;strokeColor=#d79b00;" parent="147" vertex="1">
                    <mxGeometry x="1006.5" y="400" width="120" height="60" as="geometry"/>
                </mxCell>
                <mxCell id="21" style="edgeStyle=none;html=1;entryX=0.5;entryY=0;entryDx=0;entryDy=0;" parent="147" source="5" target="20" edge="1">
                    <mxGeometry relative="1" as="geometry"/>
                </mxCell>
                <mxCell id="5" value="Actor" style="rounded=1;whiteSpace=wrap;html=1;fontFamily=cascadia code;fillColor=#ffe6cc;strokeColor=#d79b00;" parent="147" vertex="1">
                    <mxGeometry x="1246.5" y="400" width="120" height="60" as="geometry"/>
                </mxCell>
                <mxCell id="25" style="edgeStyle=none;html=1;entryX=0.5;entryY=0;entryDx=0;entryDy=0;" parent="147" source="6" target="24" edge="1">
                    <mxGeometry relative="1" as="geometry"/>
                </mxCell>
                <mxCell id="6" value="Valores de estado" style="rounded=1;whiteSpace=wrap;html=1;fontFamily=cascadia code;fillColor=#ffe6cc;strokeColor=#d79b00;" parent="147" vertex="1">
                    <mxGeometry x="1516.5" y="400" width="120" height="60" as="geometry"/>
                </mxCell>
                <mxCell id="15" style="edgeStyle=none;html=1;entryX=0.5;entryY=0;entryDx=0;entryDy=0;" parent="147" source="13" target="14" edge="1">
                    <mxGeometry relative="1" as="geometry"/>
                </mxCell>
                <mxCell id="17" style="edgeStyle=none;html=1;entryX=0.5;entryY=0;entryDx=0;entryDy=0;" parent="147" source="13" target="16" edge="1">
                    <mxGeometry relative="1" as="geometry"/>
                </mxCell>
                <mxCell id="13" value="Se usan 2 redes Q para estimar el valor de la acción en un estado dado" style="rounded=0;whiteSpace=wrap;html=1;fontFamily=cascadia code;fillColor=#f5f5f5;fontColor=#333333;strokeColor=#666666;" parent="147" vertex="1">
                    <mxGeometry x="996.5" y="510" width="140" height="80" as="geometry"/>
                </mxCell>
                <mxCell id="14" value="" style="ellipse;whiteSpace=wrap;html=1;fontFamily=cascadia code;fillColor=#e1d5e7;strokeColor=#9673a6;" parent="147" vertex="1">
                    <mxGeometry x="976.5" y="640" width="70" height="50" as="geometry"/>
                </mxCell>
                <mxCell id="16" value="" style="ellipse;whiteSpace=wrap;html=1;fontFamily=cascadia code;fillColor=#e1d5e7;strokeColor=#9673a6;" parent="147" vertex="1">
                    <mxGeometry x="1110" y="640" width="70" height="50" as="geometry"/>
                </mxCell>
                <mxCell id="23" style="edgeStyle=none;html=1;entryX=0.5;entryY=0;entryDx=0;entryDy=0;" parent="147" source="20" target="22" edge="1">
                    <mxGeometry relative="1" as="geometry"/>
                </mxCell>
                <mxCell id="69" style="edgeStyle=none;html=1;entryX=0.394;entryY=0.047;entryDx=0;entryDy=0;entryPerimeter=0;" parent="147" source="20" target="68" edge="1">
                    <mxGeometry relative="1" as="geometry">
                        <Array as="points">
                            <mxPoint x="1403.5" y="540"/>
                        </Array>
                    </mxGeometry>
                </mxCell>
                <mxCell id="20" value="Ligado a una politica estocástica Pi" style="rounded=0;whiteSpace=wrap;html=1;fontFamily=cascadia code;fillColor=#f5f5f5;fontColor=#333333;strokeColor=#666666;" parent="147" vertex="1">
                    <mxGeometry x="1246.5" y="510" width="120" height="60" as="geometry"/>
                </mxCell>
                <mxCell id="22" value="La politica es aprendida mediante&amp;nbsp; una función de probabilidad" style="rounded=0;whiteSpace=wrap;html=1;fontFamily=cascadia code;fillColor=#f5f5f5;fontColor=#333333;strokeColor=#666666;" parent="147" vertex="1">
                    <mxGeometry x="1230" y="620" width="150" height="60" as="geometry"/>
                </mxCell>
                <mxCell id="24" value="Se usa para calcular un valor base del estado" style="rounded=0;whiteSpace=wrap;html=1;fontFamily=cascadia code;fillColor=#f5f5f5;fontColor=#333333;strokeColor=#666666;" parent="147" vertex="1">
                    <mxGeometry x="1516.5" y="510" width="120" height="60" as="geometry"/>
                </mxCell>
                <mxCell id="26" value="Optimización de una política determinista estocástica" style="rounded=1;whiteSpace=wrap;html=1;fontFamily=cascadia code;fillColor=#dae8fc;strokeColor=#6c8ebf;" parent="147" vertex="1">
                    <mxGeometry x="1556.5" y="20" width="120" height="60" as="geometry"/>
                </mxCell>
                <mxCell id="27" value="Maximización de la entropía" style="rounded=1;whiteSpace=wrap;html=1;fontFamily=cascadia code;fillColor=#dae8fc;strokeColor=#6c8ebf;" parent="147" vertex="1">
                    <mxGeometry x="1556.5" y="120" width="120" height="60" as="geometry"/>
                </mxCell>
                <mxCell id="28" value="Uso de redes neuronales profundas" style="rounded=1;whiteSpace=wrap;html=1;fontFamily=cascadia code;fillColor=#dae8fc;strokeColor=#6c8ebf;" parent="147" vertex="1">
                    <mxGeometry x="1556.5" y="220" width="120" height="60" as="geometry"/>
                </mxCell>
                <mxCell id="32" value="Principios claves" style="text;html=1;align=center;verticalAlign=middle;whiteSpace=wrap;rounded=0;fontFamily=cascadia code;" parent="147" vertex="1">
                    <mxGeometry x="1396.5" y="150" width="60" height="30" as="geometry"/>
                </mxCell>
                <mxCell id="40" value="" style="edgeStyle=none;html=1;" parent="147" source="33" target="36" edge="1">
                    <mxGeometry relative="1" as="geometry"/>
                </mxCell>
                <mxCell id="33" value="Optimizar la función objetivo" style="rounded=1;whiteSpace=wrap;html=1;fontFamily=cascadia code;" parent="147" vertex="1">
                    <mxGeometry x="976.5" y="120" width="120" height="60" as="geometry"/>
                </mxCell>
                <mxCell id="35" value="Objetivo" style="text;html=1;align=center;verticalAlign=middle;whiteSpace=wrap;rounded=0;fontFamily=cascadia code;" parent="147" vertex="1">
                    <mxGeometry x="1136.5" y="150" width="60" height="30" as="geometry"/>
                </mxCell>
                <mxCell id="36" value="" style="shape=image;verticalLabelPosition=bottom;labelBackgroundColor=default;verticalAlign=top;aspect=fixed;imageAspect=0;image=data:image/png,iVBORw0KGgoAAAANSUhEUgAAAeEAAABmCAYAAAD8iCnaAAAAAXNSR0IArs4c6QAAAARnQU1BAACxjwv8YQUAAAAJcEhZcwAAEnQAABJ0Ad5mH3gAACLLSURBVHhe7d1/UFvnmS/wb+9lJupkj2VPLpa3UULrguU4YJwEQ28WS20gyvU10CT8cDZmaQo2rQO4P7DbxpTbFMy0a5yujexuwHYbiHcaIzcO4LGL7LYW7riV3LWRU7uIjFnkxh2USe5KufZwMmbnuX8cAdLhSAghIeE+nxnN2Oc9CHF03vc5533f5z2fIiICY4wxxhbcf5NvYIwxxtjC4CDMGGOMxQkHYcYYYyxOOAgzxhhjccJBmDHGGIsTDsKMMcZYnHAQZowxxuKEgzBjjDEWJxyEGWOMsTjhIMwYY4zFyad42coEdscO0ytdcMq3+7tfB0N2ClZlFyHzQXkhY4yxRMZBOIGJJ8qx/BURu5oroF+bg9UPDKA+rQq9axpxoacCKz4Zg+Pim2iutqJs8BLqVsrfgTHGWCLj7uiEJaLvpBf7zp9A4wtFMKzRQHNnDE4AutIiZGo00DycCeMLdShbsxYpD8t/njHGWKLjIJyo7vShJ6kCFX5dzO4BC5xQwfCkzn9PYM1q6JICNzHGGEt8HIQTlQswfrMUKr9NjotWAIUwrvfbCGCF0QhZWGaMMbYI8JjwomHHzuX56Mg+iPdOVUAjL2aMMbbo8J3wYjFig1UEdE8bOAAzxtg9goPwIjE1HpydIi9ijDG2SHEQXiRsA8rjwYwxxhYvDsKLgh0DpwDoDcjkWdCMMXbP4CC8GFzpRw+PBzPG2D2HZ0cnLCdMzxSg7SaAj9xwiwBUGmgeAPDsEbz3I4P8BxhjjC0yHIQZY4yxOOHuaMYYYyxOOAgzxhhjccJBmDHGGIsTDsKMMcZYnHAQZowxxuKEgzBjjDEWJ5yitMCsr6Rh6zvyrbGVsvUUztXzww4ZYyzRcBBeYO43CpG2wxqwzfDdo9i25r6AbeH7BC67FU63C7bfD8J5yyvfAVBVo++v+2DgJS8ZYyyhcBBecF5YqtNR8pZfsHysBZd+XQddNILkhAj3uxZ0/2srmt9yQPRtLvrZBzhWopLtzBhjLJ44CMeD14Kq9BKY/eKw+mvn8JfWbP+95u8jO0zVW9Bw1g2s34f3fl3Na08zxlgC4SAcL1eakWFohWtqgxqlx/+EoxvVAbtFg/ONQuTvGEX1H95F4xp5KWOMsXiJ7+zoj3pR+0g+TCPyggiMmJCftRNWhSHRhPRYI040Z/pt8ML8lW+jNwafX/dSH841L0XHkcCxaJbAzlRhyZIlvlcVLPLyCHn7apGWZ/K7+Ls3uA7lY/0uK2JQff42RLMtViI6YcpLQ+3ZyQGy2Vl3LEftWfnW6AnrnLljQW1WIbqG5QXTLNWT9XQJllTPvaZG5U7Ye90CqzPIwf1sDooeU+gE9VpQlV4FdETv7s97pgrp1cDRPx2FMTpvGWMumAwZaLjit+mxFrxrrUOK36aomHCg+QvfR0pPHyoelBfO8h0GpYbOaIDufvl2Nm9nqrDk5GZ83GGUl0Rs8dWPuZDmWlThKP7UYcQ99+f5u+OFa9gGx6gI1ecNMK4N/deKI1YMiOtgXBNkvxi0xQEmnDDlrUf385dw4RvhZ2lYqpfg+HMf4+hGeUm0hHnODJuw4QvdKPvDBdStkhf6ibTO0rx5qPurqZS6WnolCwIJgkDCMi2lrk6lgtdH5T9ARGPUuUkg7U6bvGDebDu1JOjbSOm3JiRPD1Um+46Z75W7f0i+V8x5rvVTz9vtVPloKlW+3kM9b/dQZ10WaV9so563pf/3HG6imrJcShYEyt3ZSbuNWdR2Q/5OLCpOV5KwrV++NXLvd1KBoKX6i/KCe8hdG9VrBco9uGhq/5x4HJ1U8w/JAW2FIGhpt12+57TR1/NIEAQq+PmYvMgndm3xJNtOLQmbOinYJwimf5tAlaflW6MszHNm7OcFJGhrqP+2vMRPhHU2CkHY3yA1pUonR/AvnchjLiZBKKZuj7wkCjzdVDzL7080ntOVpA2oWOnUdFm+18IY2pdFNRbp37adebTXKd+DiD60UZM+lbRaDsIxE2GFVuah7jKBhLJuikWVSyRS21JAne/LSxaxux7q35lOwrIsqtzfTT3W83T+F/WU5Wsvis3j8p+Q3D1P9ckCCcIW6g4SPGLaFhMRXW6i9AjbswUJwuGeM3cHqenRWS5WIqyz0R0TdjtgdwOABtmZCl3QkLpF2161QLW1DqVB7//nQV2Kuq0qWBtbYZ+QFyYm9caj+OXX/A+GC61FVbCEHKyIDVUSMO47bh6vFyqltKkHstHY+xqMn8gLWEK60oamMypU15QG73K7R6ifrUO1yoqG/XZ5UWRudiA/rmPoXlheTkdJ+1K0/OESjn6jFEV6AwwvGLHWt8cKtXLqofjOYXSIAAq/jEKlIaNYt8XwwvzjVrjW16H6MXlZ4gjrnEnKRHVdNrztzei6JS+cn+gGYbsVVgBQfRnPBDvoZ9vQelODun8yyEuixlBaAZW3A23vzHWMM36yf3QOLf7HzGtG1S5L6EkDC86J1l1muAFAXYTNz8rLWSKy/GsrXJo6/JNeXnIPSjKg7CsqeNvbYL4jL4zAxCfwRuN9IuQ9UYWSt7zQffdg4HjkxGTbpoPu837bp4joO9kLACgtL4VimI51WzzShb1nAOP2isROjQzznNE8WwEDrGh9wykvmpeoBmH7QJ/0jy/lTF2lyVlOmkMH6WhYb0QhgF7LgLwkcSXpUHe4BQHzpd8qQfkbbr8tcTbhxNCFsakFQIz/cg7bHpbtwxLLhAXH3wJUzz4TcG7dy7KfKgTQi18touofzOhtHVp++S4uNMi+vREnrgIA1kK3MrAIAHCnD8f7AKAUm5+WF0pi3Ra7+rrghAFFGxQvARJKWOeMxgDjGsDVZ4lqz0gUg7AT1t9KzbNho175ygt2WN4JHaQB36pPVyzoPdkb+nXWAa9Sl3NSJgx6AO9YEKKDIfGsqsOpnwXOrLPuKIEpxPT4heR9pwtm/w33q5W7q1ns3LLC9EotGg5Y4BIBQIRroAPNO2rRcMAKt7w+XLKgD4A+J2SNm3bHCeuRZtTuqEXtKyZYRhagN0l0w3HShIYdtWg+5qvToghR/reE63EDDAD6fpOYtV8ctqKjpRa1O2rRcKAXjo/ke0zLfKkFdU+nzGhPxas2OAHgsXVQmm8snjkupbVt/F/QK9bRMNtiAOItByzytnfGyyL7O9ywnnUCmmwEG5mMBtHtQO+BBul8bekKeSxDCuucSUHOBhVw3QJrFO+NoheE3TYMDCP0ePBNG2wioFmzasZJNWW4C4WfW440QwnKv1Ie+lVcjjbFAKXB6kdUgGiD7aa8LLGpS47ixAv+AzQONFS0whlpgxQNohfOk7XIb3Tc82OKCc1rQdUmE9Qbs+FsKUFGSSs6Xs5A/gE3Mp8rAsyFyPhOYC6467INIjTI/HzQGjfFe6kZG/4+H/vcq1H69TqUZnpgMqRh5+/le0aP91Iz8j+ThvKz98H41W3IdNQi7ZlC5H9mOZZvNkc2HKNZDZ0KEO22qN6xzNutXtRmLcHyTSa4P1+Kuq+XYsXlemz4XBpqz0z/peKwFdbh0Bc/V23SLZvmKb1COqOIvpNSvqqxtFC5rQ2nLZ5wouvLD2H5IxtQIm97Z7xKUP66fzetA/YBAI+vVrxIiAb3iXKkpZXDcr8B276+DUUaO8rTCiMbsw3znEl5NAeAFXapGyIqoheEwxkPdjrhALB06VJ5iWTEhA1ZtRjb2IKjncdw7KcV0KmMaOw8hmOdB1GxSgXjD47hWKfvdeoUdgVZAUqjTQHghCvcL8RtRvkjaUiL9PUV31jpvKlh/JejqPCPdtebkb/DMtUNvHCcaFi3BEuWP4T1VWOoO/caws2AE6+bUHXAId8cN96TDWgYiKhJTxjOg/VwbT+ECr0BhpUABprRPHEIf/xlI1acroLpKiD++9WARsR5zQFgKZbOdvU0YUfz863wfPcc+hpKYVijw+oJO6xeL6z2UM1S5LxnapGV1wpnyQn87qfVMDyWiaLWE9gDK+wTgGplSoQXfRqkrATwZ1eU6mQUDJuQn1GOrvtbcOnPJ9D4ggG6NQbUHT2BXQ+70bW5xjceKaKvsRR9HwUJjaIXbrcD1gtSa6BfuwJut1v26sOv+gCE6gqerS2GC6a89ai9ZURLx8z29+BLOqg2Nk63xZ19OOX/pLab0vtDrQ4e5OfjVhe2VvbC8LNLOLjViMw1mVh6ox+uCSusEQXI8M4ZjWY5AMB1K9RecySfLh0p205f/lpZNwWZMC9N4RaCTTsfpTZ9KlWenp4rP24uJuGrPb7/2ag+OZfaXFPFIY2bi0P8LmXjH47R2FhkL0+QFICIOfdOpSBM5gP6H5tYGd2fNXXM+rdNpiCN05i1jQpWCyTkhJGD7WyjvKfC2G9Beah/ezG1KaVcJaIZ6Q6j1JaTR+3vE9FtKQ1vOvVknHoqfKmBbwam5vVvE0gQKmnWxAlLDQmCQHmvT//80L4sEpZl0d4I0ktmNZUfPzN9pn+79LdU9gZuD9+4lJIVzt89mxttlBXOOR/K7X6q0QokCL7vT2bw1dTpVKPb3bRFW0/n78r3Ihozb6HUgDZhlleozx2yLSYaPZhLqdv6p1PabndTsVBJPb7PZduZHDq39kYbZQkCZe0PsQ8ReRz91GMZJI/C3xsqRWn0YC4JQjLVWye3+OpA6hbqVjjGswvznLncRKnB/q4ZdTY8UboTDmc8eDYaVLz9rt+KLVKXikGfI/13xAaruAq6MCcCqe6f+zW06gENNJrIXmqlFID5WLULx+TLWm6uCnjow8JRQaOvQ197dRjfrQumii58+XAMVv2aFzWMP9oM66ZaWELMgExcS2HcewibHwRw1YYBANg4mXqiQlHnx/j444/RVx5kKChM9l1peMhQgoYDvRDLL+Dj/3sJu2b0bImwH6pFh/9Kb3PkPNgAswjghQqUBtQdB2xnAcAAg+LzTFwwv9IMS8geLhXUc6j+3ush5p+cHYTno0H0y7f7jYU6Z6mTzv316PICKPya4mp1k3ejA7arcB3ZC8fXtyk8dlSE54EyvOa7CwUA6Hf53YlOvxp9E7FUG3IiroOa8lN496fTq0iJZ3pg0RuQkwQALtguiFi1MtJ397nejNzcEpQXb0DuP0cy41hER8FyZBRUofmIDbqffoyP3zuG0hnHOIrnjHopgvUdRCo6QXhqPFgH/ZMhGoGQ45oqqB/wa+Lv9OF4nw5Gve/9rg1KExH+hui+cQIH/dNK1OoIu+eiRC/NOg9FPNGAhs9/B9uUZmzGm7oUdYXdaDgSm+7V2FJDp9dBDcB50QoxzAvesCc3fakCdb6q5r1igamxHBvS0lDlN1Y55U4f9r7ShasfygvCZcfhA9J3UPqcbIBjcq2BNUYYlJqSK13YfcgC53/JCxLV9N9qfE55fDZlpTQ1ShzZi/p9a/HaN5VGUVXQfakIRc8Z8emPpJbQ+NIuFD1XJHtlQuX7Xgr1ilcxklnOC5Xaf9KliD5zL3RPG6RUowkHBq8H7D7TVApVeFR/p3Rkgkt5dvJCRYRrwIzWbxdi/d9vUJ7EmuDnzJyDsPiRd2bFnhoPNsAQam3NGVd3wbmPtcOiKYLe15i7RubW0S/eUWg8ZiF+JB9bCf8Vm1xCDSr+7RiKkgAgEy2/jveav0Yc6t8WcHXtOpSPnb+d/J8b3W/0Bm1sEoGhtAKuw12L+ILODdtvnbNf8PqEPXs9KRst776HC50tqCsxIEUFqfflK80zMwwGfgULjDA8KS8I04gNVhHS3e7jsjJfWxLsLs410Au3xgh9yB4xEd45VH/1GqNCMPO9nl6HpQ+swzPy7VMvI3Sh6qRvAhSQCUN2kFox+R2dHYD6pz+BMVSv2sRA6PHeCQcGrwBAJtaFykkL97yANP7afkaDIr3vG7np8qVHhZCk8Nnk1jTid787gWO/vIRz31D6tkN4sAJ9f7mEvp/sQsXGTKiTIE1i/XbXjDHdqJ4zXg888m3zNIcg7IWl+iEs/9xDWF4c+IdO5Qc/a0SIay8g6dMAgKvDs9yJTDjQYbIDX8qR5TZ+gDH5EQ7CfcsFQIVl4fYduM3YmpuL3C9G9sp6OVoTswI532hF74QGFcdPhV48fIGo/FfnmbDD9GMvNJPdP3cG0DsQorGBtJi8+UADmo/IUxrmRhy2ovctM3qvegHRC2+4F97r9Si8aYElqrPmpatxU4tJ+jyxNGGDdSCMC95JSQBwFc6gT8fxwvrKBqRllaPrrxpkPleHlp/14d2/npPujEVxqtGZ7LZtfaMP0Kjxn5ZeWK7P4+9V6bBadh0x2ZZId3FuWP65FVYv4L7Ui96TZph+4QRWinCd7IU9aPeiG2MuAKplUe86nLMJ+CZUZs4+lPb0PvykMFREB3D2uJQmqC/FM0rXYO86pKEKzDJ0F25bDMBxxAQ79MjJCNz+gTtEi5cEqAA4r4W+3FWvNaLoaamHJywTTnRtWY80QwPs0MGwtREHj1/AX/7joDRp9P95pyawxuScGRuFO8QqZZEIPwi7e2B6y1fh/G/rJ6zo7hQBqFD63CxL8uh0yATg8YS+lhDfaUXrTcBolL+fFdbLsk1BuN93AcjB2nC7RTWlOPbn9/BepK/O0qivCuM9U4X8xlGUHv8jDsbi6SbzITrRUbwFHV6/xQKGh+AIUfm9Z6qw/hUX1r6wA9VPOFBraI7gjtQL664MZPzQBd2X9Eg5W4zln3kIaY0z7teUJemwepUDg9fkBSK8bjfcoaL5hELuqteO5mfWo+HmWpRt1cNZ9xA2HJq9YYvYpQH0Ibz8TgDQPZoJwANPsFh5swvfP+SAe9iCq/5tapJamlFdaMBkLRQ/EQG44LCL0GzIwQoA9yXd5/dD0oznjIceQsaOEKu9aVZId7krUwLrjLcX7Z3i9HjwnQF0HBGxVC3CcxvAfw3Cdh3IzpbmiQT+Zn9uuEYAZK9VvJteUA/rpO9JpQrSuHthv+i7r3xgxazByHJSytQ3vlSm2N6INxzSzcAa5fzhKWG2xbhjRutrLsV8Y+vFENkPD0vvD+90UIyK35pQ2+eE+8pVDN32237/UqgBpBiNvu88NueM2/2BNDSgUzr6kQk/CP/dp3EfgJTCfTjXObkMmReWl8vRIQLqF47hJxtnuTp4OAc5KsB9fTjEF+PC4X29M7tbfN0bfWfDeSauG0N/FmOeKB5TwyYUbDbjs83nYvN4sSBGXcBnV0j/TtEBg/IoeccNa3sV1qfVwP39RpSuWYfMyco5Ngp30MrvQtcPzcgur4BOo4HH0gXHA0vn3G3tOlSAws5ncKRTep/Mmh0wTsxhMQqooEqS3QF4Lah9JA1ZX8xFbvrDUrqZPNgCwMhhHJ7qegcAN7q25KP3f5/CsXIdNJpMlD2vg+OHpplduFHisoc/HgwAKY/nQAU3HDeC1zhADUPzKTT+z+kt3r69aBvORMsPppc81DxWhKIn1fB+BDzzj9Uoeq4IhlX+n8KFrh93weX1wvVGPdqCjRveX4jNhQCu22CfHMYRnWgt2grzBAAsxwqNNCTlfKkMmZPjoQ9+Aicy8eVtUldw5owJOD7uIThFQLM+UzFQLagkI77zAx0gHkf3QOB3II70ojYrHTXetVIP4lUnXAAcR3bCrHTs7pjR9RYAFGFzkLZW6gEE8KBaCvoTbpir07BkSXngkoxhtcWA68he9MrPN99dLt6xwKpUTwAAmcjWA7g8FMGF9iySdKjoPIKKqS9XhPNAK8zqUrxWO9n6xOaccV2zAdAj7OYmHPLp0qEMHcyj5NQ82n24h3rebqeaJwQShFQq3m8L8+ks49T9okBCcj0FfRaFq41yBYGEF2WpTteaKF0QSCgK45FYd/upUhAo+Vvn5SWLw4c9VKkVSOufIhBjgz/OpVStlNqQnOp7NKV2+pGUqatTKdX/kYvaVEpNTSZhu9+U/NOVIdIifE/YWqal3LLd1GYZDfx+PTbqsc7yzd7upi2CQKmvDk5vu1hPyUIBdcp+dOw3PTSomDY2Sm05/ikG49RdkReQuuSx1FPWE/V0XnbwB1+tD0ynsdZTslAcsE1K1ZslzSEcQdIdpJSjOTy9ynfMkkM8/WXo58WUuiyZUvXFVFNXTLmpyZS8egu1X1NINjxdKT11R/HYEo2+WTyVRhMsvYSIiDznafcTAgmpeVT51QJK1WbRbotn6oli6cY8Sl0d+Oi40f1ZJKQ2kd+3r+x0pSx9ZR6ikaJEHjr/vSwShGTKLauhmq8WUJZWS6mbdlPPDekYD+3PJUHQUt6mLNI+1UZDCik74+YtUv0M0a5J54dAgpBONYfbqen5dBIELW0xy+tWGG0xjVKbXlBIIxuipkcF6clD8rf1M7QnfdZ9QlFOUfIdy2VaytpU6TuWyZT8D7up/0P5vtE+Z6S2Q3iqXTkGBamzs5lTECYiGr9xXnqu7PfaqNsySGNBKmMw0omUGvLRVuMfjpFHof6Pf+ihcYWTc4aL9ZQ86wFNUJ5+KQAXdSpWxIQWMggTeexttOUJ7VQg3+L3CLbR/VnKuXf+LDVSRfF7Jq5iJbvbT5XLKqlf8fjJg3A/Ne2ZWUXHr7VTweosqnlzkEbHhqh/TwFlyQJZ/3ZB9pxUXyUNcQzCFqxC3/bQmFLlCMrX2MqPkdzdcfJM5r2HeH/bzuSwntc9tG863zwUKTdfVq9ve2Zu8z33NuCiLwjbzmQSkpVzbecsKkHY57Znel0BhUM87vEdC3kBERF5qLNIoNQX28gW4sp87M2CgFxh/0AvF05bHPR8u+2ZfW0E341T0EctzkI5CPuM+x3LoJ8jyufMWCcVyHLpAwSrs7OYcxCeN98zLkNdzc3X+W8lk/BoEw3JCxLd3SHpylOvfCWc8E5XKl9Z3x2i7m3FtPuirzLeHaK9k4Hw7jh5xkap/Xkt1VtCVajJBH3/uzC/SnbbRp1vj0oN2W92U+qmdhpVbNCkQDndMJynft/zk2cYH6WePcWU+0QB1bxuky0oIN3ZB1w4vN9Oef7PsvYPbJOvD2d+IkURVmhF1mhdlErHbqon4kY3tf9GKSKMUeemyO+AFPl6tya/t/GL7dR9Tb7TdPuSvidKtd/VnoALz4Q27gnzPIt5WzxG7U+FuHOcRcggHI4onzNjr+cp9Ar4ibDOhj8mHC1JBuzaa4B4xBSbhSe8ZpiOiDC+uiPI2GSi8sLycj4aRkpxorcOurmkECQK3TroxP/EmHyc6EoXvv2WBa7JvNIkFVRIQdHTKYDXCduFDrx5dh3Ut21w+s8Tud6K9UuW4KFd0girNL6pxn2+2RXi9S6YBgDjU3qIZ9pgV2ngdtjQ/UYXVJ8BHFfHMPORx044r6vw2QcnR7gMMAZ5ygxUKShqOIELf+zDwa9l+9IgfEYG0OsGUh6cHEHywvLDZtgfa8HBlzTAcBfKv5CBrKwMZOTmIisjA7lfLEHNkYGYzKIPSb8L+/QiOg5FuBbzFCcGrwP6xzMBeNH7419h2eMK8xWudMCEILN3I3XTiavQIWetCphwwnTQjVUKs8O975jQIRrxf6bGBufp4Wqc+3WiLTwTmkqtgcZ/zYVgYt0WQ4PqPdVQXzLNa2GXiEXznPFl7KTU75ItLhMF8qi8MKSxBm2IcapI2XZqSSjrXrCx1OjwkO3VXBKE3Ngtq3h3kJoeVV42L3psVJ+s0L11d4jainKpeE879fyijWo25dKWn/tddV5uolSl5U5v+OYHTHV/eqh/eyplbW+n7j1bqPj7PdS5TUvaF3dTTcVk78E4dZcpfIZJrjbKFYJ1VYdPWhY1l/KKcqnmcDc1PZ9OuXU9NOb7DIMWaZ7E0J4m6rk7Rp3fm+PdVIRX1UHdaKNcQRvQlT93Y9RZJFDWt9qpqWIL7bUr1DKPjZr0ubQ32ufxXRvtTtVS8b52qn++Rnlpwrs2qtcKVGxW+FwsiNi1xZJx6t+ulQ3bhGf+d8LRO2fGfl5AwqNNNBiq3YiwzsYpCE+OfUZ3PWTP6UrSaiupP3pvuSCkSRnpVG+N3Qcf2p8bel3vKDn/reSg3TrBxrxCjwePUtv2wAA27gnstg6YKxByPNhXmSKoKHL92ybHg6UuZ6VhM6IhatreSWPUTzVhjEsFiLBChxKd+jFOnhnjtX7e76dOy7x+QXB3fb9bvp1IukDbpl3QyYz3jBi0xQF8w2y5+5XbhWDmHYQpSueMs41yl4VxgxRhnY1fECZpFnDN6rzwZ3qGcqON8hRmtCY6aTZoDCuAb+F3rWwiVMzcaKOs2a4YA/jduV5up3b5HaynkyrncpU+dVftoe7X5T0iY9T+VDo1KY0LzYlvPHjfLI2KtZ4K9o8SUT9VPrF3bnMUTksL7EuvKMy29vH01lDqIhvjDMfowTzK2nk+dGPKgotmW6xkfIjankqlGkv4bdD5umSqCTZfIwrCOmdu91PNEwXUGSIAT89IFxZhEP5b55S6W+d6hRi28VHq2Z4+3ZCHHRjnZ2h/3vTkpFmNU09FFlW+3ka798ivSD3Uv72GukPWEplreylr027q3rOb2mUVx9NbSelzCejBuNooVzZLe6Yx6tw0GfBtVJ8c66EAxthi9CkiIvk4MVsAwybkf6EBzpIT+FPH9NNK5k+E97oNx99sRush+9QkINXWPnzwE4Ns31jxwvJyFZzfPBHmUpvSuq3qGUvBBds+izteiPf5L0AvrX9bvsOLxuNRmPQ2YkbDYaCiuTTke4l3RKjulz67/78ZY2wSB+F48FpQlV4Cs6oILT8qQ8p/l+8Qrk/gslvhvAPA7UD/1VG4bylNc1Shuv8D7PNbESn2IgygsaIUmBljLM44CC+0CSdMeevRsJBT9h/ehUt/alxkKVuMMXbv4yC8wByvbUDJkTH55phK2XoK5+o5BDPGWKLhIMwYY4zFycKvmMUYY4wxgIMwY4wxFj8chBljjLE44SDMGGOMxQkH4XvNhAjvdSssV1zwivJCxhhjiYSDcCIYMaOhxTL/R9zdMqM8YwMaLnohOrtQ/lg+TMPynRhjjCUKTlFKAI4fpmHDb3bgXet8nlvqRldBGroK38O5r/ke5DqwE8u3AKf+Yx+yeaUoxhhLOHwnHHcuDJxxQ/OUfh4BGMBIN0wDGhiy/Z6krluLHG8Hun7rvyNjjLFEwUE4XibcsJ/sRe9bJnRdB1ImXOg9aYd7Qr5jmK4NwomlWOr/JAjNCiwHYLvu8tvIGGMsUXAQjpdPPBgH8InDBieykfM4ANwHJPkmV7ndcIf18kIE4Bq5Kv8NU5xOp3wTY4yxBMBjwnFm37Uc+fbGwPHgO05YLU4oPQ9pphXIKcyGeGg9MhqBlsFLqFs5WWZB1ZISmF84gY87jIE/xhhjLO44CMeVC6YvZKBt4wW894NMeeGcuA5wEGaMscWGu6PjyW2F5TrwzJPzC8AAkLJyrXzTFN2j/AQlxhhLRByE4+myFVYYYXgSAETY281wAoDXjKpH0pAWziurFhYvgEfXQQcXXP7JxjedGAawdtW85l0zxhiLEe6OjiPXgfXIeLMMl/64C7rhVpT/wohjEXdLu9GRl4buMlmecAlg/us+GDhPmDHGEg4H4Xj6fQPSypyo/sFnYbucg0NtpdDMJ1gOm5Cf2411/3YEdf/DioYXDyOl/Rxa9P55S4wxxhIFB+F4u+OFe+I+aNQqeUlkRC+cdiuc0MGQrUO03pYxxlj0cRBmjDHG4oQnZjHGGGNxwkGYMcYYixMOwowxxliccBBmjDHG4oSDMGOMMRYnHIQZY4yxOOEgzBhjjMUJB2HGGGMsTjgIM8YYY3HCQZgxxhiLEw7CjDHGWJxwEGaMMcbihIMwY4wxFicchBljjLE44SDMGGOMxQkHYcYYYyxOOAgzxhhjccJBmDHGGIsTDsKMMcZYnPx/lYrjgquh3/gAAAAASUVORK5CYII=;direction=east;" parent="147" vertex="1">
                    <mxGeometry x="532.8800000000001" y="110" width="377.25" height="80" as="geometry"/>
                </mxCell>
                <mxCell id="59" value="" style="edgeStyle=none;html=1;" parent="147" source="41" target="47" edge="1">
                    <mxGeometry relative="1" as="geometry"/>
                </mxCell>
                <mxCell id="41" value="" style="rounded=1;whiteSpace=wrap;html=1;" parent="147" vertex="1">
                    <mxGeometry x="532.8800000000001" y="277.5" width="120" height="60" as="geometry"/>
                </mxCell>
                <mxCell id="42" value="" style="shape=image;verticalLabelPosition=bottom;labelBackgroundColor=default;verticalAlign=top;aspect=fixed;imageAspect=0;image=data:image/png,iVBORw0KGgoAAAANSUhEUgAAAFcAAAAjCAYAAADhe5a7AAAAAXNSR0IArs4c6QAAAARnQU1BAACxjwv8YQUAAAAJcEhZcwAAEnQAABJ0Ad5mH3gAAAbtSURBVGhD7ZpRaFvXHca/DkMM5WD6YCsjylSGHI9YJUusWoM5ErE7ZyOKM880gzmk2NSFYKUvNnSNGRQnfUnz4Ehj2FnB2MtDkQvBMrS18tDIDx5yS2MZGnQNLRbN4KoQuAIXKVjw7eFe11fH15bq+LbU6Pdk/v97ztX57v+c891z/RxJooot/EIOVNk/quLaSFVcG6mKayNVcW2kKq6NVMW1EfvFLSiIdDQidL8gZ37efBdHyHse06tywgTtZCPNsF+wbSwtZw4GSphtL7QxrMgJHVvFTQ47Kc5NUZUTBwh1MkjhHOT8upyxU9wvRukRHo5+IScOGBvLHG0WdA4n5Yxd4mqMXhQU7RMHumo3Ucc7KESQU49L4/aI+1WYXiHYM5OXMwcTdYpBIei5Ubq32OIWMnPTUBBA1+laOXUwcQTQeRzIzMWRMYUrEDcH5e51hN68jumVnB56kkLs9ogee2TEvieLxH0FcLTihENKWVJA9mEMkbdDCL0ZwvW7KeSK8jX7T2E1gTvvhhB6O4L417pNLHy3V7vogu90LfAojkR2K1pWXOV2EK8rPnTVxRBq82B4IoJXfvs64s93outUCiO/68Gd/5lbpLC0AODUb9BkDltRzGKmtxGNfXEcah/A1b4uOBYv4eifp2H6jftLMYuZ1xrR0HEL2eMDGPgTMH32Jbxy9mU0/PIljDyUG1SGq9kHIIGlFVOwZJGQWY+y1znEBxskP+qnEIJCGL7usb7OCCE4GDe1yYTZJgTFwLwpaI06GaQQvYxu2piNJK+5BYXoZ/nWe2AjzXC7aQybJIZYL4S+Ke11Bzb0CU5udbB75S58gsSr5xGoAVJLCwAA11vv4+oxALksVABwXMXlM6Y2RaAAoKm5XN1mEJ1MALWH0XDICD1VkXkCOLr/iBPS1fh6BiPvxp+popXblzDymWkMm7zo0mfZMT98FktZ4b8RhN5PyeFSDr8IBwA1Z1paStSXeZxk8jFJqpw6JyiEu7xvNZyCd2xNzkisMezXK1/UexjsG+VEIs38hnydzvI7bgp/mOV63ZH1KHuFoBBehr8qTeVneiiEYL2FVyXzuq28UmYuWYx798o90orWIwCKSSQWANRewNmT8kUSxUo3BRcuDgT0PwsZJD58D8PBl9HQEYGybUPLYOHjLBztfrjkVIVkZ6YRA4Djl9H169LcSlKflefbW0sTAFBcwCcfA53tfjlTlt3F3eSzBcwBQNAPi9uXUlO5/XJcmsO3n8/h1luX0XmyTg8+HMHwXWPyF7NYuhdD7IMIph8BrmIGsXtLyG4TvzypxQQAoPa0T3pAChKfFgAEEDhlCucUxO/FELt9B3NwoO5JHLH7CmRv9D05DZoUqkhcZTGBAoCA3yentlMD1AJQvlTkzBar07jkbcTpfywBxwJ4Y+Sf+DDxDb75VycAQNu0RE815AE8TSWhoBW+UwBwCKgp6e0H4WuWaj+bxMKqab1dmcbwBwqwXkABQGYliYLDD1+DPrbN7WEb6hqyAA7XbRVXBeJmkfxUAeBAayXG9VdN+maUy2GnBSI+FkJsNYvUw3RJJdTV1QFwofOMIcDzTQh0d8FVVICTF/BGdxe6uk+g5FcUFUQuHMXRo+cR2eX4z3FEb9XgKB2DcjeCBIDaMwE0AUjdu461Ghdw5AS6un2oe5ID/vBX/d5nmrDTvMxmvwVQi6YmU/8li7IVG/PsF4KifohWy/12jM3PPcplOWUwf0VQtAxy1vwunk/zpl/QOTBPzRQm1xj2Cbrf2aG3+KBhEQXF36Lc8YX7y1F6pFdULdZP9wt6W+/YGrnxgENOszXUx17Ja3xyuJ5C9Gy1rehswdgFK/Gtm6RveHb3jNoDXmsRFE4vg32D7D/npbO+nm1/n6cmuwXjvb3ES5tZT+p9CUHh291NpCd76BaC3ouD7Pm9k+6/TDC9rp85C2cHgy1OdoybelgcYr1oYzhj7sUKvQDkg6ry4jJPTdV2tEiWGFVS7onnNZWqqlLdrf+P+k0VkWdyPErLo/eNWfaXEZckmdf0e2rm35anti1Gro15TTNwjdHxB9KsMjAKoGO8tJoqEHcvqJxo3/4k98LamJei5aYuqHKTvTstD4tD9Fj61L0zPyAo+mZJYwnpn7GU1jhyNC0nBjaJqw/WuR+H5YvX6Hb28Oa/h9hzJUrVssI1Ri+6ObQox58N9T9BCt8QJ270svdW0rpqjcNyj8VDt09c5jl/ZZ8+86xr26asGXWml56+WevBPyN5TaVm8QlnE3UySNE8ymWLh26juD/WB8o8l2dmmd5Ze/v4KT9QkrrFCre7ORj/KUZvI+vzHGwJcmoHYUnyOVb/P9c2KnhDq7JXquLayP8BZRorEbW7GqwAAAAASUVORK5CYII=;" parent="147" vertex="1">
                    <mxGeometry x="549.3800000000001" y="290" width="87" height="35" as="geometry"/>
                </mxCell>
                <mxCell id="47" value="Recompensa obtenida en el estado S&lt;sub&gt;t&lt;/sub&gt; al tomar la acción a&lt;sub&gt;t&lt;/sub&gt;" style="rounded=0;whiteSpace=wrap;html=1;fontFamily=cascadia code;" parent="147" vertex="1">
                    <mxGeometry x="706.5" y="277.5" width="190" height="60" as="geometry"/>
                </mxCell>
                <mxCell id="58" value="" style="edgeStyle=none;html=1;" parent="147" source="48" target="52" edge="1">
                    <mxGeometry relative="1" as="geometry"/>
                </mxCell>
                <mxCell id="48" value="" style="shape=image;verticalLabelPosition=bottom;labelBackgroundColor=default;verticalAlign=top;aspect=fixed;imageAspect=0;image=data:image/png,iVBORw0KGgoAAAANSUhEUgAAAG8AAAAoCAYAAADwmKS0AAAAAXNSR0IArs4c6QAAAARnQU1BAACxjwv8YQUAAAAJcEhZcwAAEnQAABJ0Ad5mH3gAAAjSSURBVHhe7ZtxbBPnGcafTkh4Qt9M1QUjzVukNuDRpKSswVEp2CqBVNMcrygEaTTLtqyLRENSoQS1HUVCpqhbOk1ZQqeGKgKn/mNyppY4E5uvqIoTKZPNxGIQqc0UFLMw2RVodgWyEZHe/XFHuPtyd744AWbJP+mk+Hvs1z4/3/vd+37nPEFEhBJFyTf4gRLFQ8m8IqZkXhFTMq+IKZlXxJTMK2JK5hUxj9m8HOJ/2IUNbwjI8dKKUED866ewq64fCX58pbjWj1013QhleEFODsIbW9FwJs4LSsgo2TQlr4zRyKcjNBKapSyv89ycomAkyY8qiPVuJ+boo9g9XlkZCoo/00c1tX00y4+vIOlzrWS1tlIwzSsy7sWoz8Foe2+MVxbIa152Jkie/RXEGFMcrk+0jckK7VTBGJV1h3npAZNdZGUu8s7xwgpRaPxHYB4RUbjbSsyR533mvORiVmoX1FNFx7wsxT5ykZVVUN3bAzQijNGY0EONZaJ5Fcem+BdIJGlgJyPGqshzhdck7k2Rp5JRlWaMZbKc+I/IPEr7qZExcp3WTgIioqljVcSsXRRWWT00zYv1bifGrNR6Tp7bs9RXK5q3/aTG6V3xUBVjxCo9pJXw6eFGYqyOBpaaFQZZVvxHZR4RjR0q0zRmgbkBqtMwWd28i5IB+/2kXJZj1POCaF7rOYWwQOy9KmKMUU2v1ulLE2CfP/91syCWGf8RmkeTXVTGGL02rPdJk+T9kXoyqFabqZsm7PvjBP7tbYJZLszHEbsKADY8b5ML94nCfyYBwIaWhnJeFLkWwNA04PyhAyZeWwkedvyVZGs9GgAEhHFekWGBc7cNuB6AcE2pqJpn2X0YR5urYV7FCZejEN+mFranOQ0A/hnAUAqAxQ2Hmg4gNS4gDgvs1RZeUpDLxBH6LIBAniN0TdkEGI2/LOZziI+fwvHOgzjYeQT9nyeMtyJyVlXD6QBwVkCE12SU250wIQ5hPKUUuEzUJXnaJVabGkvS/SVTu5ghCh5gxFgj+W/zyn3SNNYtxjF07Fd+lvzx85Bv2UyHyeNgZHV7yB+KUSzkJ4/bSla9ylqHcHcZMbad+hK8IiPpJRdjxA4EFcOqmbeI+RwyqRTGx0MAgGr7RmRSKaQURxSB0QQAE35cX81HkEggfgUAzDCv4TVIzWkVGs5a0PF7H3xeH47uBmyvD8Ln9cF3pB54tg2DXlHzef+Mib4m2fKYL/7yibzXiA9uHcb5kaNocthgeyaLyEQGmYlwQY29xVoOII7EDV6RYVmPdQBwPQlF7imsVCF7sYfqnlSZ8ZpHKwU1qyepmNCY2VmhnSoUTfUUeSpqqCcuPkqedi2afUr04y+QnaWxT0dobEZl/dDNvCC1M0Zs5wAt1H5XeqiGMar5Db/aZCl8sp0GLnLDHNnhRmI6BaDIFHkqFp9X3szLwIbOQWnWA8D3mvC7hZn/4Dj5c6mCcThRzV8rDWLadgL/CHbAdv/10wH4M044N4oPo5Mh2GyqldISyGH4l8+h4WfNaHj+dQzf4XUDXOjGhu/uwN53+hG424KJr7/Ghbe41ebOKHreGcKlm8phHtMaRUmowVqsfYof0yhY5Fi2uOHe44ZtXtxnszR1om2POCY/1ku67eVaaJcKOeTm+TEZa8wwy0rE6PAQEq/Www4AiCN68YGmTp74i1gN82p+TI96tLRLZ5eJQvjwCJqdG7ChTcCircrxv0FAPZzbeGHlyGueSAKC7vUsjqhULtVu1ssME0xGs3I+hE8+TKG+3iENJKQ2RQ8j8U1oGryMUa8P578cRH3e5yuxv38Z/wr5cKK9Cc6nxZmW+VMzjv9d1DPTAgKfBfDBmVHAYsZ/hQCE6UXWLpC7o609II30LX7MqHlS7wRTC/a9yIsA7lxCWOr/bM/wIsdqANNTyLNfjszZfpzK2eD8gbJbS8xx5TKPkfimcjj3uGH/Di9okxk/gh2btqLZl4Jlixsd7w9idOornH/TImb8bfF5ubs5AAlEIzlYdtRiPYDVq7TTO3VDTIon1/KKnBRmUwC+bVb0robMS4wOIQ7A0v5TaQnjuBpDFACwWb3/W6ActkoAyCCje62Jo++YoNov5nSrOqPxl0oCQ0f7Eb0RhxBVTh7z2rUA3AvLo2WLG+5tZmRuAa/8pA3uPW44N2pvF6TmEgBqsVnve0sl8RUA06bvKy5JBsyLY+jjOIBytDSpLZkAkrNiCfvUeogTKIPIiV1Y963ncHxa+dRquxNAVHcJzP21B/3XAdOrr0D+jt8EgOkRBHXKaiPxC8X88gn85V3Z9L0VQE9vHNXHj6JJ3ppcDCFk6HqXQuzLHGCxQ3dP4dolhAE4ajcrhvObN+2H/zqArR1oe5YXRRJXL4l/3BrC8ROn0N/ZiMbfRmB7y4fD3GssdjvKkUKEm8FyxkeHkUM5On4hz3MHnA0Qe6L/yIY5jMRfOuXo+PgkaqePwFWzA3s7D2KvcwPWberC3Xcv4PM3ldf5yBejwBYn7Pl6zfkoQuOAqcGhmKQ8iUgIOdhR/yKXwbK2QZXw2xVU9lI7jejt0E/+mipkvV7ZS600MKl1pzFGnkrtXRoi6cbvTRU1m6ZkWmVcgYH4euj2eUTZm0lKJpOUTKY14ou95sIu04yfBr7Q+C4mu6iMlVFXiBfkSBvT8t5SIq95hrmd1jkhJcmP6gq/ZWOAZcXPY15+gtTKGLUGiIjSNPKrVvJreDd2qEz1boEC6ZaQ2p2HlTNvKdwLU5e1wJulRlhO/GWblySvm1HNoQHytLxGPREN56SbsY3DGrrE1LEqYpUemlLZtXo85klbYQX9TMEgBcdftnlERFlKJ9OUVfnC7xPuthLbx98v5ZjzkotVkUdji+2xmUeF/kBoCRQUf0XM0+eR/QDp4ZKlWG8dVRwIGrpWLp0C4icGqG7nQzRvpo/qXuiiMT3jKEvBAzXkOq1tHBHRE1T6/7yiJX+fV+L/lpJ5RUzJvCKmZF4RUzKviCmZV8SUzCti/gf285AsOv6JkgAAAABJRU5ErkJggg==;" parent="147" vertex="1">
                    <mxGeometry x="541.8800000000001" y="400" width="111" height="40" as="geometry"/>
                </mxCell>
                <mxCell id="52" value="Entropía de la política en el estado&amp;nbsp;&lt;span style=&quot;color: rgb(0, 0, 0);&quot;&gt;S&lt;/span&gt;&lt;sub style=&quot;scrollbar-color: light-dark(#e2e2e2, #4b4b4b)&lt;br/&gt;&#x9;&#x9;&#x9;&#x9;&#x9;light-dark(#fbfbfb, var(--dark-panel-color));&quot;&gt;t&amp;nbsp;&lt;/sub&gt;&amp;nbsp;que fomenta la exploración" style="rounded=0;whiteSpace=wrap;html=1;fontFamily=cascadia code;" parent="147" vertex="1">
                    <mxGeometry x="706.5" y="390" width="190" height="60" as="geometry"/>
                </mxCell>
                <mxCell id="53" value="" style="shape=image;verticalLabelPosition=bottom;labelBackgroundColor=default;verticalAlign=top;aspect=fixed;imageAspect=0;image=data:image/png,iVBORw0KGgoAAAANSUhEUgAAABkAAAAeCAYAAADZ7LXbAAAAAXNSR0IArs4c6QAAAARnQU1BAACxjwv8YQUAAAAJcEhZcwAAEnQAABJ0Ad5mH3gAAAHqSURBVEhL7ZQxaBNhFMf/lQ4H8rhKCXU4uniQwdAMHp2KgsEstQ4GMlgR7HpuKSIuSukoJWQQhE4upZepHQrF5exQSKcaUC6CUqVLth6c5KDC3+HOmnzmYg7tIvktd7z3jt/7vu99N0aSOGcuqIHzYCRJxUiSiv9HMpbmxocf3+J1vY5mG9CvFFG+fwf5SbWqDxyG4y3a14Rilriy4dJ777L2wKSISXvn5Kys03Lptjo9n5LknyWtGguXhHK9Ru+0K356yJWrQpFFOgFJduiUM6zsd9XEDJYEu7QNoUiBr47VJHn43KSIsFTvkIHDRaNCt7uRmIESbzVHEaHcc/j7JpBHVYsiwsxyg0dVi7lVTy0hB0sarGTkV6f92F6KmrhbYslY4m6gFkQkj/DXBhohAORxY1ZTsxHj8fPNHvSXayheVPIxyZLvQAgAyCM7rSYVbr3A2oKuRs9IlkxnMQMAmoYJNQcA8HGw34xeJy8jWTFIMl7E42dZINyEsxet6Sfh5208snKw/RnMAkCzhS8A3q0vo/6hpzRCPaReTug+sSiS4VzZpv3wNi3DoDn/lFufomHwqnMUMViYt2jcVO5SzHC/lW8+2kG0Gk2fgq7MQei34Yca9Ckd/UZkOMlfknwm/5CRJBUjSSp+AM3/Ovf+mdprAAAAAElFTkSuQmCC;" parent="147" vertex="1">
                    <mxGeometry x="578.6300000000001" y="517.5" width="35.42" height="42.5" as="geometry"/>
                </mxCell>
                <mxCell id="56" value="Parámetro que equilibra la recompensa y la exploración" style="rounded=0;whiteSpace=wrap;html=1;fontFamily=cascadia code;" parent="147" vertex="1">
                    <mxGeometry x="706.5" y="508.75" width="190" height="60" as="geometry"/>
                </mxCell>
                <mxCell id="61" value="" style="shape=image;verticalLabelPosition=bottom;labelBackgroundColor=default;verticalAlign=top;aspect=fixed;imageAspect=0;image=data:image/png,iVBORw0KGgoAAAANSUhEUgAAACUAAAAgCAYAAACVU7GwAAAAAXNSR0IArs4c6QAAAARnQU1BAACxjwv8YQUAAAAJcEhZcwAAEnQAABJ0Ad5mH3gAAAQpSURBVFhH7ZdBaJtlGMf/k0IH4zEoZPUQlh3SBWdpDmYtSmlxle2wNIIZrVDZIbLBSANqWxmdPZitKF3RLvPQ6mBEvZi6QjZYTURIJwzSSU0LYoJUEtjhqwxMIJJICn8PSZv0zdcumR566A8CL+//+T7+ed7nfZ7kAElij/GMurEX2DdVLw2ZKqyv4M71IfTZW9H6YvnTcxZXvllBdkON/g+wHvIphrx2igjt3llGf80wXySZ0xiddtEiQrF4GHqsPvh0PNlUMkCHSSimQQbW8qpKkszcc9MkQnnJx3hRVRtnd1NJP7tEKCY3wxlVrEbj7EmhiLB3RlPFhtnZVCZMt0koYuLwA1WsJTVdOl7p9DOlig2ygymNgTOlb248H6b+oSnccZdMiZthVWsQ3dtXWBjDyH0AMMP77ikcVAN0KPyTLa9WkfxDERtEx9Q6vpqaQwEATnhx4biq65NOp8urdpiPKGKD1JpaD+Puw9LS6jyNFlXXpYDVpWRp2XIU5iZVb4xaU0uLWAQAtMDZbVZVfTbu4/uF8vq1TtgUGQCyD2/g7dNn0ddzAkMLm0e9A2qRbd0icTGYU9UdWBymUYQiRg4vqmK5j3VOMlEkmQvSJYO7vrs2U1sYYDik7ulRwNzsF6Ua7J7CaLciZ+fwzkAEA5+NwtoE4JABBkQQW1XiqqgxZT7Wrm7tzi/X4LsLADZMfHqupgYXP/IgcvwDeF8pb/ydRRYF/JVRAqtRU0ctQIcIReycTG5u5pma99HV3UX3TIxbzb2Y4GRnqcG67+m0/FyQgyK0T1e10welo/ZEqgO3U2uKeYbPGykibLuaIEkmpnvZOxJmQtMYn+ql45ZGFhMMOE2l0fJ5KU4lP+eiiND1SZQJLcV4JMTge3aKdNGfVqMr6JiqHjFd9C0F6TEOM7qpFUN0n3LTYxPKc3aORXQyVCZ8USjioG8+xNB8iKH5AD0vC8XiY5wkcxmmlgMcO+mgf63ynL4pkszE6H/TUr6JJg5Ohxj60kf3GQtFTOy9FGKqev7k1WGUor9TKP3BypgqhukWoXEkRpLMJ2OMp4McFPs2UzWFvoWhA97bv+PP337Cd4FxWNciWIENA1dG4YQV/UNOmDfnz0YS18aDWFdeAQDWjvbKmPrhW8zBivGLHQCAg8c6YDtiQHP1A9Ar9CeRC9IlwrYPY8wXybwWpd9poeNr9SdLKVOVIs8w2C80lbNUIUx33ZnaieZmGACkr7+Ow88/i8Otfbi8/AbG31KbgRntr1ZGeXbhfYwte3H741KWdqNxU01WHN02cG2Y+HEKHTrzrmfoKgwzl3Hj5hAcEy/g5s8TunE1VCeybh6F6PN66LnkZ/SRKirkM9Qeq5egmtrjezpT/xNaZJIer4NtYmTXOQ89t+IkyQPc/9teH/um6mVPmvoXE5wOXRj9kCcAAAAASUVORK5CYII=;" parent="147" vertex="1">
                    <mxGeometry x="993" y="649" width="37" height="32" as="geometry"/>
                </mxCell>
                <mxCell id="62" value="" style="shape=image;verticalLabelPosition=bottom;labelBackgroundColor=default;verticalAlign=top;aspect=fixed;imageAspect=0;image=data:image/png,iVBORw0KGgoAAAANSUhEUgAAACUAAAAgCAYAAACVU7GwAAAAAXNSR0IArs4c6QAAAARnQU1BAACxjwv8YQUAAAAJcEhZcwAAEnQAABJ0Ad5mH3gAAARASURBVFhH7ZdfSJtXGMafjsHcxUv0InixbMKWLl2Vla1phWIjaLcxFh31X0cdY83mYKQKJW4XbmVdVAbagcQr7aBEdiFTMqIgi71Y7EUhFlp1dPt0CMlwkIxefEIlDgvPLr6o2emXmLhBvegPPjg5z3uSJ+e873uSQySJA8ZT6sRB4ImpQnliqlCKNLWJ1N0pDHc14MQrh3E485w+14uxpXU1eP+wQNKrYXqPC6XMSe+1KLX7aWN+LcpAk50iQvunYepb6sriKciUdt1Nmwht54OMG14UdEY6bBQRVl1ZUMWi2dOUNlRDEaGtI0JdFbNZG2G9CEXqObKmisWR15Q+46FNhGLzMbbnscQZqBaKCJ1DcVUsitym1oJ0i1DESs+M6Zk9QviCYUo6IqpUFDmqbxOzX3djDgBe6MTnb5eoASZs4u+NzHBpGQlFLQZzU3+OYWB8EwBwsvMTOFTdlATiq5nh0QpUKGoxmJpK3ZjGPADAgXffKFdlczaWEFsxhuUV/8VSDlOxm3PGoLwRrhdVNQc3f8JsZug6eUwRDVLTF3HmrRY0OBswnPkCpqhJll1F0vYDC0txMnrJaqyx+hg1qVRtqIa2C2Gjrdzx017pp6YGZTDdqR0sFhSS4tiYwLXvjBysHfgMtU8r+t1etFwuRX9vIywAYClF6R/ziKWUuAwmpirgeFWdy8/iVT+mAOC1flx9X83BFEa7B5F4rxMfPJeZWtehI4n17WpVMDEFHDtVawzuLGJ5e3Izgan+Fpyu/Qijt7Mu35VBfPxtArC0YnKqEw51l34dxfBtoPXsmztTqcV5pFACqLHbqOdJknwQoccqFKmi/x7JLY2Bunr6ZjUmkwscqHMzuEZyOUi3TShl9Qwsq29isHDFThEnvRMLjCc1RkNhDrRZKeJlrhZrbir7inH5GZvw0nopuitOeVjf4WWVCOV4DyP3s1dmE2fAJZRKD0dCYYZDYYZDA2wu2y0ifc5PT4ePnnecdJ4PUtvKY4ok9fkAm+2ZSrS1MxAKc6TPQ/cRodjq2ROK/6s604+UaoQeEdqzfzmsBugUoft6kmSMvmovIzpJ6gw2Cav6tPzVZznRicnf/sLvc5P4/isHln9eBI6eQ5+vEXi5DV1nK3arc2UQX46bl5Pr9d2+lZgew3JJKzpbjYKwPIxlmq4F1accSCQSOXJqD9ITzRSpYs+tNMk0k3MBuu1uBpNqpLFTnpnMy60F+iu3d0klyZE6Q9uXKU55jCPNemzdMTVq54O2TWlDNbQ2BmlmSZ9op7M7Sj1fouflnt9I8u3HFaBm0sVJMj3rpb3Ox5G+ZtY0GYmsos942T6kMU0y/SDNQ9zn3/bUdC96b6RgeakVXd5alOfqOQCwsY7Uw2dQbjG5H1ZGcfFHBy5/eASAhrHxZ7FvU/8P8/ji+TMYzurFx7755XGbMidvS3hcHEhT/wD8MZYKE6ojrQAAAABJRU5ErkJggg==;" parent="147" vertex="1">
                    <mxGeometry x="1126.5" y="649" width="37" height="32" as="geometry"/>
                </mxCell>
                <mxCell id="64" value="" style="shape=image;verticalLabelPosition=bottom;labelBackgroundColor=default;verticalAlign=top;aspect=fixed;imageAspect=0;image=data:image/png,iVBORw0KGgoAAAANSUhEUgAAABwAAAAXCAYAAAAYyi9XAAAAAXNSR0IArs4c6QAAAARnQU1BAACxjwv8YQUAAAAJcEhZcwAAEnQAABJ0Ad5mH3gAAAIVSURBVEhL3ZU/aBNRHMe/lUKzvFFuDJRAQEq7JFb8c8HlQIype2kRoVNxsmMHiVumGiJIK0irdDAdGp2uXXrd6hByQsALRBKh8AIKqVB6UuHncKf38nr/gsTBDxz5ve/vd/d998uPd2NERPiHXJKFUfP/G47F+Q/tloG95gkA4MeXIxhtJ45EmYamzaGQVf5I4Ya2hfX5PFb2e3JmCBax870CzV0Ft/TEwMq17F+aAcqDAlRRIF86VFYZMcYo82iTGl1OnDtXbYkRu7xMNXfNOaeD1akLGv96Jj+UiIh8DTuVm8TYFD02+lKmQcUUI7akCxqnzbuMmFqmjqAG4WPYoNKNFOVf+NxeL1KKMcq/4p52rtNDJm8iGB/DYBpPUsRYhsptQXQ3kVnz2aAPwUMj89PA6+c9QClAnfRku21imLGKb7i/hXUbwO1ZzAiy1TSFVTQxDW1U31QBAJo2MOToHQ/zfnENP2+g9B4AcijcSgiJLqyPTmQ1LUEPJpahUXkKCwCuaMh5p9QgddOpiSDa8LSKjZc2AEC5oyIp5yfc39YhjmJ0N9LQWiviHQAggTlNHBcASCKd/h0b2NqNdgw3PN1D6VnXiROLuJeVC4D0jLeJD9tv4VYHEm74zULL6SaSywvIjcsFQPL+Aq66sXJ99mLLZeSTQKZv6lQzPtHZuZzx6Js66XVO/sf1IOHfwxEQ3tIR8AuW5F+9yG4jlwAAAABJRU5ErkJggg==;" parent="147" vertex="1">
                    <mxGeometry x="1338.5" y="545.75" width="28" height="23" as="geometry"/>
                </mxCell>
                <mxCell id="66" value="" style="shape=image;verticalLabelPosition=bottom;labelBackgroundColor=default;verticalAlign=top;aspect=fixed;imageAspect=0;image=data:image/png,iVBORw0KGgoAAAANSUhEUgAAAXUAAAAuCAYAAADXw4lIAAAAAXNSR0IArs4c6QAAAARnQU1BAACxjwv8YQUAAAAJcEhZcwAAEnQAABJ0Ad5mH3gAABaySURBVHhe7Z1/bFPnuce/u0JqrrrThLtrjFa3qaqTOoOUjNZJ7qoQ3xJIb1UnXRug3YKyNjSZqBO2NWEXyLhjCZl2Cb0CJ6ualK1NQHeTg2AxEyymt42DxGazGxJ64dpBRXEHk13RK3sC2VWQnvvHOU7s1z7+lZMS0vcjHWHOax8fv8/zfs/7Pu/zvvkKERE4HA6HsyT4O/YEh8PhcO5duKhzOBzOEoKLOofD4SwhuKhzOBzOEoKLOofD4SwhuKhzOBzOEoKLOofD4SwhuKhzOBzOEuIui3oYnsMbUPC6HWG2KGPCsL9egur3PGzBl4Mz2/DAAw/IxzbY2XKOOoQ96KksQPPZ+XssPmzGitfnY6kvuc+ng5r2WgC8v9yAkp0OBNmCCNd6UDLbrkvQc419QzxfUWVF6R0/XKec8LHnAQC50FcZob+fPQ94Dq9DyYktuPBfLdAvY0uz4I4HPZUlsL54Aed+oGdL7z5J6ykJj5ShZq2WPRvLmW144ORL+Ft/FVuiDjcmYXNNwetywHMbyK/ei50bU9zTUkNt/1LDZmrf0xfBnTA85wdh/eVRDF6KtIY8FG6sR8sPG1H1aA7zgSy5J+omCHtTEbbhV/if/irkssWzeNHzT5uA/7yAlkfZMgZSg/EDVF4oklgokqgTSBCkQyOKJD7ZSiO32A8Q0flW0gkmGrjOFsyT6wNkEnRktofYkrvPjI+cJ4bJus9Emqo9NHximIZPHKDaleXU+pth+f9WsuxqIFOhQIJYR5beBhIbR9grxXO6gYR03pctH+whsVA3a1vDoWn2HUseZ5uOhOcGyMcWZItaNlvMPs8QOG+hWlEgQayljhMTNB0IEVGIApeHyfyk5FuVh9ykxi9R3V4LxYyTWnUClfcma1PTZCkzkOVj9nw86oh6FKGhWqnha1rJyRZGmJmgjtUCFe2bYEtUYWJfEQm6VnLOsCWLhJlhaqiw0DQRkW+ATK8Os+8gohBNH60jUacjTToNXy2BSMHEPvHLKerjHVQkFFHHOFswD1S02aL3eQrQaFsRCYJA5fucFEh0nzNuslRIwl47FGBLM2Mh7LWABIZqSUjayU1f1FWPqV9yjkkvni7DGrZQJvi7TnR/UoqW14rZIlUofq0FpcF+dB7zs0WLg2U5wOfy69tB+JYlGm7mIH/rMfz+hytVmG9Qj7y8PPbUl4Aghn7RDW9JC5rWsmWLg8Xt81KIobrPi+LOCzj301LkJgq3LtOjpbMJOQDsr3fCcYd9Q7osfnux5H67BU05DrQfcrFFGaOyqHvg+FCSIOOzFUgkVYAXgwftwLPfR/2DbJlKPPg86isAx8F+3ItTSOFTbei8IL3Wv1CPxRoN/NJwbRAHzgBV2+uxaGcRFrHPew6bsOm3QaCiF8dTxbYrqlANAOF+DJ5lC9PkXrAXyzIjtnwvB8E+C4Zus4WZoa6o+50YmwIALUqLFarzmg2DV5KJvhpoYdyoBz6xwZ7GbPFiwzvlwPRN+T+PNuL97grmHZwvEu+pQXhgRM26hfPY+bNIff6PbdiwdxKAHl2WdEQ2H4WPSa8uTXnZwrS4N+wVT+n6agA2/EEOdmSLuqLucsABADnP4xmFYY9/zA5PMtGPEA7CM2aD7WSKY8ybMDyRX2pEDjywjy3G4WgS7kzC+m50XysHubkqOWfYj8mTPWjf0YzmHZ3oV6i7+RD2T2KwaxuqDQUoMW1D+2E7vIpfEob/og09u5vRvKMdPScn4Q+H4T3ZjmpDAQoMWzGYSqDm6Sep8cNx1gNoS5HKZQEAtz1wHOmUfs9Z+Ttvh7P87ujrNaN5dw/s15SvtPh83oueH/VL6XrVP0ZjqqwNAEAYYTm/z3M5mzFHhvaK8cFmdB6bRDDrsE8UUW1t9prhMMLJrv2EEUYApz6YZwiGDbLPB2ebRpok3WJVnL0e2S6QINSSNVFGjEzA0UpFcpZF6qOOrIm+zDdAJkEgYbs6E1HqMkINZfJE6ccWMsiTZaHro2SpEUkUNdRwmv1MCpJOugXIeaiWREEgQ0sfjYy7aeLEHqpcLpCw3kLu2UkrH02cmEiaLTB9yKAwURoi99sm0glFZD46QdM+H/m8E9RXL5KgM9GAh3n7jJsGanQkLK+kPb8ZoRG7lTpqpOyaolet5LaZpUm1JBkBqvhJSkbILCT36Qi+oToSBR2Z9g/TxPgoWb4rklhVSQZBIPEnCZICktqMKODqoHJBR6b9Vhq97KbR33SQSaej1vPsO2UWm887WkkjCCQIGmp1sIUKzAxTg2wzw0E3W5oG6duLZnxk/a6OhGIz9dknyD0+Qn3bi+adMRNwdVDlcoGKtvfR6PgEDbeVk2a9SWpvL1pJeQrYSa0agYRIEkUM6U+UqijqbjogpySZ3lWqkml5druBlNwuZDeTThCpcleflOL3i1oSylrJGkn/W26ISv8bppFJpSoakZwjAwM59xuktMysDgN1uNgrKsGIepT4FO1y0sQhg4qiHqCR7SIJgo4aTsfWlTTjLlDRfrnxjHeQmKK+lETd966JhIRZCwGybhGkB3lUkXu/lAlROxTV9G5ZqVYQSFjdQW4KkNvuJF+iLAlV/YSIfFba06sgIF4LlQuCQt3O4e6tJEEQqPxQ1HVmRqVGqtQmFG02l+Y2axsi8h2V6pit+zky9/mFZLaTJzTQiIId4xjvIFFuCzG+EWHGR8MtlVT5ookMNdEdEpk07UWzPls318GccdIeMbk+pSJw2kyiIJCucSRKvH3Ut176TZo2xZxAWbiVMgfvhqhHegmCmCSNSL7piKCx3Bohs1hOlqhe3cQ+ce6J7Rsgk2BOs8InqENM8l2JCAXI5/NleQRS9wxmSdxTp1tuGt5uIM1yQTVRn+4tl5zpR6Ns0ZyIih00IQtt5dvJ5SChqN+yUp3ceIfZRkZEZGtg7iHSAWB9RRYlIYXzquonRHTaTGal+pYfuspCSkSeA9KDeXUHxT4aIp0YAx1gRyqkbDMiIrJLI5Voe7gPGkhYbqADiu0rC59fMOY6eWn1mmUi/pXQB2bcZKnQUYNNksuJfWLMQ48oTXsRzdlG00qjEZ+9NUx1ywUS663ZPRQDw9SgEWIfFDJShEKgBlvs+VhCcgco0UMlfVFXL6aeRjw9JfdVoOvPZ9EiT5QAHtiGgjA+Jc+YjzvgWKVPMxskD3lfY8+lICcXWq02yyN3/hO/9+tR89bvsT/b+mO5PYT23ZMA8tHympEtBe7PlVaw+V2YvGbHgbeL8f2taQUiYxn7A2wAsOqbKE6Yqib9Ez4yJG9fkIOcZQAQRFA5RKyMqn4CuD4IoPQJ9my6hDH0s054AOgbmUyl2y44LgLIMcI4e6+Z4dpZgIeMm9B+2Ibw1nP42/9dwE5F/8jQ52+44uce0jpc8CeLDQMAvHBPSa+0qx5Ls234MWKT4+gljdjCxOAnuzahXejCz6uldZd5eXnw/tGJec0ghPtR/fXHUd3Qif7/1uPIp3/D1YHNaUzoxuPpbcdQGMDL9dgcs4J+Es6zAGCEsTT6PEsOcpWXlKaNaqLuGjslvTBVQPm+U0wULGMmBS9aMfhJNapKpP96rlyaK1uyaPFMTbpylBz/0KAkttotqFnFliIq08AH2+5WXGrrYpwxPbxTKeyi/6Ysdk54rgFAPmq+owcQxsSlqCYZ9EmTaqvqUZNsUk1VP/HA8VkZjEqt+E6Kp47fisFTAKBHfXV+bNklJ8YA4NtVSdqEAk/Xo0W+p+BFO3r2bsW6ggJsO6O4S8iiJe21DVf60XMBAHLRtL8pVlhv9KP1TS82m+cyaAKBAHAzGDsJncpes+RjS6Pc0Ql74TjejTZTCVZU9sCTTKMUceGdw1K2zuYXmG0f/JNw+QGsqlL2MxXJXNTDQfjjuldR+ekVZUxZNJEeWno4jvbA/+y/oEL+jNeTyWx4AIHP2HMpCAfh9/uzPBjnmgf5338f//F01Ik7djQ/349ME7wmXQ7pxcYyJF7mFbGHB3ZvPY6ZGVFKl4SLp6KYbWgrkSs/NPJfaUEVANduE5qP2GA72Y9mYzPsuUb0DrYgkzvJ1k/CUw7YfvsOrDd88Fz0J+5wpPpt45ERqhFlzIPIc96BMADjU4lrPynLStH10VWcG+hCyyYj8nMgLar5XieUcyMy9PkHS1HzQk0WRym0KduxHt9M2JFQIoihn3XDCyD35V9h77diSz3v9cCFzXhpY+SMH5MX/MB9se9Laa8otFtP4dM/n8LBf61H1Vq5i3yxHW3ZLOC65oQjDKk3zo765ChGzrqyFH4dRlCFZ3Zmoj7Vg3UrHkLBQwVolxfHANH56XpUVaR4FN0H4MpE6gUSwSH0HAlD/1Rp7NDtmjfN4ZYf034A/5h+WMT15gaU/3N5lscGdEfXyXzIyUV0R9R/rAeDX1uZwiESIItU8epUPX8tWnp2Zr2pWv4TZVIdK9n1Y7d0/uFSlMnu4T85hMnW9/Hpnw7CeNsJ+4d+rOk+h6tXT6E+k1BFFn4SvmZDc/k6tI0B+WEf1jTuQP7lVjz+eDPsbKNaBuSkk15Xuoaxjx/ODz0A9Kh4SgtgEoNvDCWunxiCcOxeJ6Vz/lWL4hda0PXrU/jor+9LPfdwGAH2I7Nk7vMLRz7K5Dxxz+Tk3OnPXOjfUY11pnbYbsydDp56A+YzANZ24f232I2tJmF9zws89vcIfuSF/4oDtpODsLkArNbH1ns69poaxFZDAdbtdQGPGdHU3ovjjr/gL29JPezA7Xl0z3L0KGQkMBLFqK4oBeCH/d+74WD9DADgh88LIGc50hzbJCQjUXe90wnJPJ/j86hejf93g1JvJdWwGfnQr4YUS02xasrT2wE7tKipYKQs7IAzVe4yAPh9+BRAzjcK046PlbZfwNX/vZrlcQF75eG/mgTPtsH0hgP6lMIcT+QzefcrNPEbDjiuAUAeVmYSi2X5Vgv2rgUAF5xX2EJg0iWtpjC2Nc3GnMNBH/xXvPj8MSM2/6ALvZa9aNpYDK3CrSqRsZ9M9WCjoRv6X59D72tGfH4ZMK7TQr/1GI48a8XWn8mjmwgP66VRTlBhJLbyEcm/vr4y1s+mBtEzFhVPv2hD5w2kfjB/Moif/HIS/ik7oiNTWJaLvFwA1UYoLkXLwucXktLteyV7H7dKqySDdmx7xgK82ovjb5Vh+Pk2uO4AwbE2lNcNIaytx3Fbgh1bPxmD3Q/kP7EG901PwukJAlNO2MNA1XqmNlLZC4D9UDNsU35MXnTHbHmbm5sLIB9VT8daKXimGY8/9BAe32FX3iJXK3e6Hs2PrfugDX0D4bl4+u0x9B8JS7aMww/vtUQdhMzISNTv+2oukFOMpoEL2B8ZHk31YNNOF4BidKUxbC4uNQKYnJ1ESchtOw4c9sZPusqhguGzSn2wKK5dghNARZnSDjR3kRvT8ObLIvBwPtZc8jChlTCCV2xof6YAhmNlONiux5pVmYt6/it7sTkHcBwfhjc6tHAnCNfhTSjYYMPKp7UAPJjwALhhR+ebCns7y6GpaZ/UTwz4puH3++WJzny0vNOF0mVedG/vhieqNYWvdKP5TT9yXz6OY6/Mubv2QT1wZhsKCgpQ8I3IsQ6bdjSj/bAdnhQPfSAbP/Gg88V2BFqPyJOsXjiDc/H0R/LzET5/ibFFMUorAIzLow2WtVtQ/zCA88658s9s2PacNHkaaeSOo/0o21ydZg86F8bO38eEIIKnDsAyVYyun25WvsZi8/lHW3CssxiADW80DcHxXie8jW+iaW0+tA/X4MffmcaBHdUoMvUjvPEgLnzUi6pEYnd5ApPQYsv2ptkQUHGOF0i4ajSFvSI8Vo9jfVErXMMedB8cQu7Lb2JHTNjIi8FfDMIbDML7XissCTotAID7q/FSNYArTrgivhv2oLvmNQzdAYAVWKkF/Mf64HllS+JwqN8NTxjQlhTP76HMpsMkJTBCZlFDhkYLWU8Mk3W/tKBFeNJMw4q7izFc7qAipbzdCHI6F5uuFBqqI0EQSLcrPouTRUqNqqS+dO/riyBgpYZCUVqQsVw3m+OuiWxTXCjGbG8rCBoSC0XSLS8ni5e9GINSepxnQNrqtNBEDS1mqq0QSacrp4a35Z3yAiPUoBNIKK6kykKRzEwu+yynpbRE9ohJvbzpJMt3xajfpiNhuUh1hxLsyndzhMyPxF9v7iiiVofCvUTI1E88B8gQnV7oG6C62bxhOZ0sQfqdlFNvogEll43U8ZO1ZN5STrrCWuq7HCL3oXISBB1VPmcg3fq++DRDBZu5360lcbmGxIpaMrfUUrmoIU1hHfVdZu8slkXp80Tks5nJsFy2a0UrWU9YybKrlso1AgnFddR3PtrOIQqxP/N0A5MuK6VGaxpH4mxF6dgrMEp7nhRI0BnI9KqZGp4zkE6jofJdI/F+SkTTR2WdY/2dJXJdsZIaXjWRqDPQHnuAAqcbSCcIVFRVSWKhOfFW5BT5nUoLtdJPacxM1ImIZgI0YbeSZZeZOt4ZptHLmeRnExG5qWN14sYzR4gCvgCF4ipYPs+ejsNHA88JJKzvyy7f9F5EQSAkQhSI5NPfTFB7M1J5QMnZMmU231/BVvKDRNc4TD72DaEAue2t0gKSuLxvlgz9ZLyDRKGWBiIaEp2fLu9JnnC1ptwRSbgYZpZIHcd+bygQf26WZDaTbeLz+cgXSPhphkXu86EAuR3DZD20h8y7LGQ9MUoj+wxx6ycCtlbqYG0gi/psTY13UFGybWrTslfENrJ94nwoHvfB9BYFhm4muOatQPw5BmebJjZvPoaFFHUV8L1dubA9iut9VCkIVJfCqEuKZAKxyJBW8iV3UPdBAwlCGiOUTJhxUqtOQw2nJb9wttVJvbmAkzoqNFSptKo0siJQbcFU02b3oM9Le/PX0oAvRDQTIvcJMxWJe+JXU17vo8qIqM+4yVKhIdPRZJZYCHv5aOC5JL3/+SKvPmZHnXOkL+oZxdTVQrvt52jKdaHnSNSsuIpMHumB6+Gd2PltNt7GWQxotSsAeDFxOWH0HkAQnsteIKcMa77Ols2DZaU4+Kcj+PuuEmzY3Ym+S2Fc6tqEdVv6oD14Fe+bleYttGja34TcCz3ov8iWLQ7uRZ/P+WoeADuaC1bggX9YgZLvDeKR9h3xOf0P1uPHr4zhwM5+dL70GhyvnsOppIvkFsBeF/vRg814JtnXzoPg73rQH67CvzUr+WAGsCr/RSHt3ZFkCJUt1wfIdA/9xRPVULPXt+BE/gqOtPmXLyrsE7o+SpYXRRKEJPF9NfjYQqaWYUorskFERCEa2a7yn0dTy2b3qM9H5j4iR+x+KfGEbvrujr0CTuqoKE+81YMayPv8xO+bFE36PfW7JupEJE0kVSTYlCdb5D+HFbOp0pcFtQTiCyTkGSFLi4kMkcnh5ToSnzSR+dAIudWK7yuRbL8XJdT2LzVspvY9faEEyPn2HjK3mKnjqDupoGeFWnVzfYQG7KrfnUyARhp1KR9o94yoE4XIfaiSxO2JZ7EzI0Qj2w1keneeBrxXiclOSbQhECeaiX0N2cVHQ26yrBfV+SPPH5hJM69tcr/kPp8OatprAZjurSRD26iyoMfs4pqeqH+FiIgNyXA4S5swvBe9yFurZ1Yucjj3PlzUORwOZwlxV7JfOBwOh7MwcFHncDicJQQXdQ6Hw1lCcFHncDicJQQXdQ6Hw1lCcFHncDicJQQXdQ6Hw1lCcFHncDicJQQXdQ6Hw1lCcFHncDicJQQXdQ6Hw1lC/D8pGfxALbJHjgAAAABJRU5ErkJggg==;" parent="147" vertex="1">
                    <mxGeometry x="1263.5" y="754" width="373" height="46" as="geometry"/>
                </mxCell>
                <mxCell id="70" value="Ecuación de la política" style="text;html=1;align=center;verticalAlign=middle;whiteSpace=wrap;rounded=0;" parent="147" vertex="1">
                    <mxGeometry x="1406.5" y="635" width="60" height="30" as="geometry"/>
                </mxCell>
                <mxCell id="71" value="" style="shape=image;verticalLabelPosition=bottom;labelBackgroundColor=default;verticalAlign=top;aspect=fixed;imageAspect=0;image=data:image/png,iVBORw0KGgoAAAANSUhEUgAAAFIAAAAcCAYAAADyfuiHAAAAAXNSR0IArs4c6QAAAARnQU1BAACxjwv8YQUAAAAJcEhZcwAAEnQAABJ0Ad5mH3gAAAc/SURBVGhD7ZlvaFvXGcafDn/QyM4UU1QXqtWQ2nMI3swWxWbMlojdaZTa3jo5TmmCszpziis7YyiGJV7YsGNY7cAaJSl1kq7YCZRKrTPZJZ6VQK0EAlIgje15WC0xVmDlqmSb1NXogg3PPkiKro71x05sYrb+QB/u+95zzj3POfc973v1BEniax6Zb8iGr3k4NqeQahCn60rRcVWVPWvn4w489bpXtq6J0NnnsavLh6js0LD5hFwO4vRPd8HV+BHO/EQne9eOGoO6LBvXRrH9Q/RF96P8kDermJtOyMDR59EtzuCDX5fJrseIHta3PsTe8SbUnw3JTmDTCflJLw4ObkVXbwuKZN/jpqASx/9kxdTRDgz/Q3ZuKiGjcP9xAKFdnTj0A9m3OdD/vBOHdD50vxmQXZtIyPlh9I8D1vZNuBuTFFjQfECH6KAT7sV016YRMjQ2jCAsaKxZhwNmA6msbQAwir9eT7c/saqEfFlFeOY6/At50pFvFcOyuwL6AtmRjzCG60vREezCjc+Oo0J2y6hhTI274Po4CF1lGw6/XAH9sgq1QAedPPb4QXz78l58ec4qOTQsBuF7zwX3dBjYUobGtjZYt2VZ0PAwGko74H/tGr4YqEzZmY/gEOuNgkKs5lfOnlm5g9UwQbsQFM0uxmSXRCTQw7pCwfL2QU7evkPPkWoaautZVygofuFiRG5wpZWibUK2PiAS6GG1MLL+hIuTs3OcfK+H9UYjHTflO5P46TAICrOTCxprbiHvOlktBE1tTrpGPPRctNNksLF/xEPPyBDtOw20nfTQM5L4+RZyCKHQ9Vsn52QzSYbi4+SaMElGrthZIgSNbRMawRQO1sYX0nDEn3Y/mUfIJT8dRsHyE6mnUi7WUwhB05tambQs0FklKAwOakfLIeQCneYStl5JPXLMbaN41ZO48tNhqKYz9MCdm6UJ2tuzTOiuk6acD08y4mGrQVCIfXR9le6aaI8L2TqabifzCOm1UwjBureVB6a5kyaKQhP7b6fdqSFGV7OgEK3U9prjsClCy8gM3nlBn7hWMXbZC4u5Kn4574dP/S7KntW2ycEtLyKVeaNfVoJnuuFWAbzcgj1btJ4p+K8CgAUWTchaC4GuUnzH0oTuU6NQ99/Al/+6ha6sKZgO+qQkGnIIqYP+SU3AXRzD+2NlsJoTycnsHQRT3rwEb/4bVcm2Mst5DjEEcP5UvKLY85J0aISnEAgD2GGFJUv3Wdndgs5Em+gnXpw+vh81paU4OJ6tEMxODiHTCV8ahLeoEeZt8evQ/LR8S2YWg/BdduO8OwTl7hTCUv4FACjIckImmffDpyK+634o+QI++ADoaqpQLLnyUlCJvpnPcGOoD51NFhTrEC8MDvRiZcqdREU0g86rE3J5CudOB4DdVVJq8gWUcJohhRrC6OEa1HT5gOdiUHa8hsPPTMFhKkWHvOIFgA5AcDbPHteVYbu06wLXxwAADeZKAGF43xiAL8NE04nCd7QGpab9GP68CBUvdaLvz2OY+fxafIeqKiJykweEoYQA6AqxVWNdlZDqXwYwcA+wWs2SxwffbcmE5Bec72HguQu48dYhWBanAbMZRTtacGnwZ3Ad6IVP+0Xm2bL4AkWjyPiSFz0d323bitOrnugoBofUVHxcvI5zF1RszRDD0rg3jN+dnUL4Uy+mtRuhQB9v22CBPNMUYYTmAVR+P+0NWIWQIZw/OQrIVUfidRy76kvZEgTfaEL3P7twIfEFJxTQxEdjMYpVH6bvaVtUoNIM4PZc5ri7pQF7GwD83Y9AMjSoQQw0/gruZQB4Ck8XxcNP8JfN+RN6AIAelt6PcPxHKUt0rB/OTyvQ9/s9yBpswnMIqkDRror0RdWc4JlJ5nivSMnybA/LhaBoHGIqeSDJOfbvFDSdTOZmCodeSeVcMbeNQthWpDBzJ8opRD2H0jtLEZnksZ2CoqSOra/Ws8Ro4jFvhJErrTQKwXJrHUu22zkh9Zst/Zl718aSQgNLzDbaO22sLjHQsH0fB2ezZ8Jkoj9hoMOXbs4vJMnYfYWRDP3H7kcYW5Ktd9hTImi7mMg/0/JHhUMvChozJc6JhbG5MwykIXZfoaJI434VWWlLkkVIkuRSjBFFoaIoVDJNMAP+IwYKg4OT0lirEnKt+I8YaWibiO/gmw7ue1chGaH/D9U01Do5l2nCyQqldlDa4Y9ILiHXytIkHYb0SijJhgjJJYWezmqWW4+xp62Ott/YaftxHVvf9q+shbXcdNAoytmTtap4CNZRyEgyLGWYxMYImWRpgc5GOz2rfG3IGCfajRQvynH3EVgvIRN1uc2dQcXcJeJ6EETwmUY06rOegRI6WJ3X0PefDjSdynh+Pyai8L5uw/svfIB3mjLnVhsr5IwfsbXW1wVl6Jy4hebR+vX5O1b3zZXfKNdI6KwN3fpL+Ns5KzLLuNoPuw+JOj+F0JMVKMs2+v8QGyrk/xP/BRfFg9feZG8nAAAAAElFTkSuQmCC;" parent="147" vertex="1">
                    <mxGeometry x="1250.5" y="880" width="82" height="28" as="geometry"/>
                </mxCell>
                <mxCell id="74" value="" style="shape=image;verticalLabelPosition=bottom;labelBackgroundColor=default;verticalAlign=top;aspect=fixed;imageAspect=0;image=data:image/png,iVBORw0KGgoAAAANSUhEUgAAAFMAAAAmCAYAAAC4XadyAAAAAXNSR0IArs4c6QAAAARnQU1BAACxjwv8YQUAAAAJcEhZcwAAEnQAABJ0Ad5mH3gAAAfhSURBVGhD7ZpvaFvXGcafjnzwGAc7bKraTVlCokRO4sQtdhzIFIvFnsuI43VRGkpjzKrgQKY4JXPSJTGBTKYryzYwsjumrCVRKCyzTDc5JUFqoJYHLnIhsTNSpIwWOTggFReuSoI0HHj24V79O5IsOdE6f9APhHXP+95zr557znve814/Q5KoUhG+JTdUeXKqYlaQqpgVpCpmBamKWUGqYlaQqpgVpCpmBVl5Yn41jmOb2zH8hWxYCSTh/+UO7Lsclg0qLIeHIU78xUFrq5HGeu3T1En7kI+RhOz8FCg+2gwG2q4rsmXlsBiis1XQPBSSLVxazEWFwSErjULQuN9B760IlQTJhMLQB3Y2rxYUq9vovFsJRaN07xU0nAzKhpXHvJudwkC7P/d3FxdTmWB/o6AQZjqmioyUsJNmISiElaNFXMpF8Vgr0s83xcz5BgpDP4OLmbbCYio+2gyqkM6wbMxl4oSOQgjqTkzIpvJZnKFj61P28U0z72KbEOy8FE035YupxQQhORbluo1CCAphoy/rKS2L6zYKYaTjlmxYyahhSWx1MBU981bz6TPtGLgNYMtbGPmFXjbns6EeJgDAHYTvy8by8P/dA9T8DC+9KFtWMnpYfmIC7o/Dr2UeuWJ+MQy7Kw4A6DrZi7U5xiI8SkIBAIQxUyRjWJpp+P8B4Mc7sV02FeJxEuHJixg8fgzHjg9g+KM5JGWfJ+FRGIF3B3P7fJRcsu+1LRbUIAz/ZAyQxQyMDCIMADVH0PtyTbapOPMRqF2ZUL9BNpbB/SCCSUC/ZRNKXjE+jcG2Z9H+xxjqD/Sh78ALUEbM2HhqWvZcFrGxbmx8vh1/iDWi9/UO4HI7tr3Ujh3PP4tt52Zl9wzrt2MngMC05pOJAUH269RYKXp9meYSzJw3ajHTytGHspWkEqSzp43WvWY29/mYt1j77RRCsHkoIlvyCJ405MQozrvZuVpQ7HSy9NmFCY20UQgpb1ycSGux9Lrho00Iir1uRnNi5r0AAtqY7uhoTTcvzRwmb6jjElssaPmOZI77cbjBjuTATYx9+BHejB2AfUyaOI8TAIDtm0oFFT+uuOKAXo+6VFM8huhjwPTz1vJCksy936P7zDTww1N49w018gMAVq3D2s0AYELrrqXWDT3W6QEsxJHMmeafh9QpDj0aN5SccCoPfPB+pn5tef2g9IPi8Bw5AP+r7+DUJgCoQW0t4A/eyfFaNp+exMY1u3HgzDDG/9ODf379NT79daPsVQZJeH6jhjVTb4+2iGo8mkbgNoAaCyybsg0ydaj7buYobzUH6lBXK7cVJnx5GNMAUHsEvz0sPcHJQdhvmPDm0RatIYl4HEjG1eUqzePcw+J0oMeuXSM+C/87A+i2bMTGI36oS+YyiY3iyjUAMKFnnzSu7wQxCQAvdyB19+WQEdP0Qu7TKUXcg4HfzQGoxSsXz6FlVbYxCY/rIpJbetC1PtV2B8GPAeT4FThegpa3/4V/B97HW/ZXYFmvzp741W4MfiJ7lsGtAAJQR9/O9D2qhKcCSAKw7Co14hUoX2WOMmKu3wlLDdQU527GIf7JRRzr3I19Z8YRS4+iOMZP2OEH0Dh4E+/9VBrKj67hb9cA/CCJyGcxzN32Y/zqKAJJoHGr9MhWfRsAcOfeXG57FvHJAezevAPd78egf7ELfW+/h2szX+LmG3oASSQfymcsg5btUniKIfhxOCtezuLKrzxaCJSJIRID8L1a1ORO8xb0Dag/1HPVgySA+I3DaB8Bev80hpEWLzrPTAOII3DKjO6xJPTdY/gwO3CnmArAD8Cy3YR4OIjZSBLKVABh6NGxS5pSJhMaASiKNP3TzOHKuWHMPgjDP6stdhq1dXUAumDZld0ah//4NqxZsw3HbiwRAJ5bBz0AfP859W+Ke1cwPJkVL2+PY/ABCi9wsSi+BFCzuV7tI2elT28lDTzkmaCztY2u+ZQxxAv7rbR3GSiEkdY/h1isVhQZas5LlXy9gkLXz/yakJaSHRwt0l+EzlZBQ5eTwey8asFLm6FAKWwuVXzJ3erlE6Jjq+Sz4KXNqJ2rpVsTJww85Cl8Z5zqp04IWjV7gb15lN6+Zi13FDSfHKX3r06ePWimTgg29LgYXMjyTyTyRIgMNVM0Xcjc5KKajxXOJRMcfa2Y0BphN61GQZ3RTGufndZWI3U6Iw8VfKARuvencl8bl8yYtX5Fk5X2g2Ya6q103U0wNGSmEAa27W2mYY+raA6rDprMgMsXUyOhhDjxwSidp+08OzRKb8BHR5OO/YFsL4XeE448ESJDzTmJtOKx5pWrskl4DpVV6EgsRBmNRhmNKgVElAnxQlMJMUmSCSoF+kwo+W25aIWOPS6m0vqiYuYzQ4dRUBx0M5pQq+/eow00npalJBnopy4lpuKjzWjk2SnZKQttx1HRElzUzU5tZ/I/QSvBZYeAZYgZ4oUmLZ6kP510p2NqNhG69hh5aMhF+4/MPBvI20TmEb3UWdHi8Mz55hJbwadj5nwDxVYHZ0oWhwuixba0kKXe1SSoRBUmikztfLSFpgKvLZRpB82tFxgq+9rLZN7NTtGQF5aWIaZatHCdttPe56D77lJCPiEVeqEWve6mL3uRrCRP/ELt/8GCl/b6Njo/lw0rgQR9R5vZeSlfSJJ8htV/dq0YBQodVZ6UqpgVpCpmBamKWUH+CwHvxzb11mK0AAAAAElFTkSuQmCC;" parent="147" vertex="1">
                    <mxGeometry x="1250.5" y="960" width="83" height="38" as="geometry"/>
                </mxCell>
                <mxCell id="80" value="Probabilidad de seleccionar la acción &lt;b&gt;a&lt;/b&gt; en el estado &lt;b&gt;S&lt;/b&gt;" style="rounded=0;whiteSpace=wrap;html=1;" parent="147" vertex="1">
                    <mxGeometry x="1426.5" y="864" width="230" height="60" as="geometry"/>
                </mxCell>
                <mxCell id="81" value="Estimación del valor de la acción proporcionada por los críticos" style="rounded=0;whiteSpace=wrap;html=1;" parent="147" vertex="1">
                    <mxGeometry x="1426.5" y="949" width="230" height="60" as="geometry"/>
                </mxCell>
                <mxCell id="85" value="Ecuación de los críticos" style="rounded=1;whiteSpace=wrap;html=1;" parent="147" vertex="1">
                    <mxGeometry x="716.5" y="620" width="120" height="60" as="geometry"/>
                </mxCell>
                <mxCell id="86" value="" style="shape=image;verticalLabelPosition=bottom;labelBackgroundColor=default;verticalAlign=top;aspect=fixed;imageAspect=0;image=data:image/png,iVBORw0KGgoAAAANSUhEUgAAATsAAAA9CAYAAADS8s5uAAAAAXNSR0IArs4c6QAAAARnQU1BAACxjwv8YQUAAAAJcEhZcwAAEnQAABJ0Ad5mH3gAABWxSURBVHhe7Z19UFvXmcaf7nqm6mRvcGZHlrtRomxGRK5NTNII2E0x2gQq12MgTTCuG1jSCEM3FbhNINkUwmwK8W7XdrtYOJmA400gntkUuXYEHbtS3BqRDF3hnRjR2pWciRe19o7USaaS1x7dDuy8+8e9EtJFH1dCNjg6v5k7A+dcpHPvec9z3vP18jkiIjAYDMZnnD+TJjAYDMZnESZ2DAYjL2Bix2Aw8gImdgwGIy9gYsdgMPICJnYMBiMvYGLHYDDygs+xfXaMpMyOoO2NaWkqSncfQtNmaSqDceNxv9WGwx9KU0vRYmlCsTRZAvPsGMm54sTIW074pOkMxmrBJ9hoQJqeAObZMZJzqhm3fwM4dvUIjNI8BmM1kIGNMs+OwWDkBUzsGAzGqoK/4objPTd8n/LSrGXBxI7BYKwOFrwYeGwLGt9yYW66DzsK16GwbgTeBemN2cHEjsFgrAqme6rgqDmGY92taO0+hrO/eB6K99pQ9f2lOwKygYkdg8FYBfjgOhOC87kdGPidmPRgLXaqgNDwKHIhd0zsGAzGKkCD2s4m1H9rD4x/FUlTQFEQf9dyYGLHYDBWBZodh3DEUg/dGjHhihP2i0DBUztRKrk3G1ZW7D4dQ9uXqjBwSZqxwlx3oE1fg5GL0gxGanh4D1ah8DsO5HYd7Uawyst6aQBV+k44Q9KMWxPfq1Uoed4J+Y8TwljPS5i+txVHX8qF1OVoU3HoggNObxKTuacMtQ+qpKlAyIHmomZg6Dc4sk2Gr7rAwzs1gtFX38bIrF9MXIsNX21C+/daYLxXIfmDZXJxAFv+ZhQ7//N9tN8nzVx5Ur7zpBRAZzRAd5s0PQkZbNgEAO/BLSg5vhNnf9G+2DungA+44XjnMA6/bYfnupi4rhhNLT3Ys6sYBTI+I1syLetKEDrVjKJW4MhvjsAoo4msbkJwtBahGUfwmyEj0j2OUD9GnB7rQWmqmzOxUVo2QRp9WkvaDcKl5DjiOI64O9Sk3aCl6tfnpH9ARH4a3s6RutMlzUhIcMpCdVqOOG0d9R6foblgmIjCFDxvI/NDwvdV9nsoLP3DZeJ/s5o4tZns16Q5K0/wvJ1sxwfJtElLptdtZDtuo+F2PamftJDtuPC77XAvmXeWk5LjqLxzmLqMerJ8LP2kFJw0EceZyC5NT8RUB6m5ahq+LM1IQHiObO164jiO9O2DNHE+SOF5Irrmp4n+OtJyHHFaM9k+kf5hjsikrCuMq1NNXIWFErWiW455F3WoOSo/lPppgidNpK8dJs+88Hs4GEzetjOw0RyIXSwz1KsVxKf6Tb80M0rQWkccV0ejQWmOlCBNdBYRx3FU/rKLguLDxzHvIUuF8J111rQfmBnzM9S7Sb4orwSeA3oyO4SfXZ2VtM8rvYOIPnFRb4WW1OobJHbieyp6eUaasxTvMFWrOeLUDTT8cWITDp40kZrjiNvUSzOJ6nw5ZFLW1UBwlOrStKdbCaHtp+hovBaqaxolf7TePbSvaR954u9aRK6N5lzs/MNUzXHEcVrq/VCaKSIam/LZCWmOhCDZW9SC0PUnfVQBZ4fgUSo7aCLHjcP/emXqyllh5vr1ZDop/GxvSSFmQRuZlCnyEyHTkAQDrqTBdO/Ia6FyjiNObSJ7yn7JT4OPih7767lt5LLLuoqYeFZJnLqDXDm27RVhfoI6lEkcCO8wVW/SU0O7mczRq5qKnrZJ71xEpo1SzsVuzCQMYZUdlOBRBE6aUouhiKe/XPis7cOU3tztZBKHz5GGnzNEAS96JY3grhCpxc5D+zpHo+9vaX4aZBnSHFnKOOJ2jiYfahARBe1kUnPEcWrqmJJmLmWuXxjmcmW5HMLJLOtqY0rozBust1Spk+LqVBLHNdBo3PTQXHSEJr20qbxwWTYqkNPV2OnJceGHR8qQLNyZ44QVUDyGrQ9Kc2L4VSeqetwAdNhraUKC5Q0JGmwQFxFmL+Y4IJHKAONGwDfuuPVCHS144XnfH11tNP7babTcLblnuVwaw8gFwLCtAsmXiAIYadgBawhQ7DqCV/5Wmr8Uzb2iBV2YgVeamS2yyroKKTGiBsCYY1Kac0tS+mgNgDH8PO5xNGh3XsXVq0uvj/4pXaQ6eeRQ7LxwnhGaVXJjmobj3dRiCPgw8OyQsERd8wJa7pXmJ4IHL65pe8/nrGmIaFC2RQFccMApJ2jWKiL07gissQm3FUCR45XHwKQDXqhQWpy8S+JPdaFzEoJBf8+YxDbi4f8U2aQwC2+OtibJKWssfMCNsYPdaNvThra9I3B/Kr0jO/iLTgztbUPb9wfguCS0Gf56ipX1NcUwVAB415GTkwQ5gffBcbAbbXv6MCY+gzTfOelLvK3nywYYAIz/8uY+Te7ELuDC5EUAqYzpdy64eEC18b7kBj85gL4LAKBA67frk98Xy4IPc6IQ6XQaae6y0WwqA+DE9Kw0Z5XCh+A90YaqHnfaJf7l4p52AiiOetZLCWDkgFUw+pJ2tG6U5ifG54v40ZuhyZE3mr6siwSONaKwsBGO2wxo+YcW1Kqm0VhYg5Er0jszYCEA61OFWFd5AIGNLWjZBoxsvR9VW0uw7ov3o/uc9A8iqLDhSwqAd8EVOUq1kix4MbC9CiMwoBQjaHygfsl7cey5HzXVO3A4UUel2gCdAuCnXTd1tJQ7sZt2wgmkHqJ6vXADWLt2rTQnyvT4iNgb1MD4sDQ3Cb92I+IRazS5FzuVah0AwHdFpmsXsKLxS4UozPZ6yior8upSvOh+4Hbcvu4ulDT70X76R+n3Hi0LH7znAaAABcn27gXsGD8r/Kir3SpjSgIAeMxOix666h5ocuKNyihrhCsj2G0ag+Hfz+LQbiOKNxZj7cd2+BaccGbb4S14MbC1EM0n1mPvL8bR83gxiivacfTIY5j9lRfABuiix6SWolJrAHjhW47Y5gj33kY4/v4DHP2uERs+HwIgfS/iCA6boUvYUamguRfAb31Z2nl25Ezs5MzXYSEMANh8XzJBWhwKY9vXUCHTyH2TY+JL08Hw5QS+YGgaA09VYUf1FpTscWSwi1tk/T1QAfCHEjrlS1HV440PPsAHE9ld//VavUxRkKLD3pmruHr1D/joXQOsVY3xw9gbwZ8AbHwAOml6hEgnCBVqK5LVu4SFSfz8lPjzI2UJ/7dAYLwNVVt3oEZfgwG5J13SlVXE9+5hOKHA+nURW+Lh/58AoKrF15Iad2q8BxvRfRbQ/OMb8ZvU79EI5bmvAmUpKl11pwYAjz8GpTk3mQUHLAc3o71RBcAN+7s8AAMMX46555wdNh5AhQHFCduwCus1APg/4mY+To7ETs58nRx88IiGm3KoG0cA9jHRCyhpwU7pHF/IgeYiM/ju0zj2s/fwQmAHzMdkilaEgrVI7osmRvGXKqhU2V1pPY+0KKCqaMf4YKvMd3jj8F2KdPnyho8AgCkHhK5TgdbGpb6p9+AW6E8Y8VP7MYwfLoXlib7cLWJE4TFUvQ73Vzej7w0XdK9dxdWPjqL+Tul9MrhuRd8PvAB0aP1mvNTy0064ASgeMaQUYcVtmUxIhOB9bwxjJzK/HBfSuQLF+Lb9n2FcA+BXb2MgAKCmCTtjhNo35UAAgO6RsiSdtgIFmTxOjsiN2EXn63SoeDjx4wEAMgjCl2qoG8eFIQycBYACtL7SKnm5IVhbd8Cx61U8fx+iL9nhynYscotRIazi3Th48LLrVMbwEQDAwzo4JExlVBzA8xWS7HN92NGzFnv7aoX5yIK1WPu7abjSjofkl1Xz9RYY1gAAD9+kFfufq0HJF7fI9yAlBKwjGAOAjU2olXTGsy5hAqbm0dyc/7zhrFGhtERoZU6rMOVU+3hNTKfKY3rSDUABw8Op5Pvmk7HY8Z+GlhpNdL7OAEOq3juhSxuLDg/InMAWCMH6g/3wASjYdQQ90i0Nk30wn9LhhWcihsQjFAL4UIbOcyiYsbvNfxpAIJDdFYqcE102Rrxqb0Hs4NH3ahU6z8QkLAtF2tVdzX0ZjvvO7UfvOAAUY++PpduOAhjq3A/frnY0RTysUBBB+GW8s/RljXJnE8Z/fxbjP34eTdsiZ3Td6H5uJKs5JveUMJBXbCmLq4vFEZFkGJgA/no6jyuWAui+WovaxzO/jBvlulzTGD/KAzDisW2x44dJOE8BQA0qSmKS4xDa4c0mA7ELwdF6F9b99V1YVxdf6dH5uq8bU4diWfMFIOVeOHGbBwCv272Y/Ok0hvbUYEt1N8ZiJmhD48/BfArAg3tx+jXp4WLRQ4jrTWfhOiNHdCX45xAAsL5A5qAwYMXu8nKU/112l/472S5QLEURW+aFaQz8MARVNkOxZHw+zV44cZsBMAt31DPi4TvRhx2GLWgenF6cQ13wYv8z++FDAep/8rOlARhEL77+8cWhbcA9jQAU8uo0XVkXvBhpKEGhoRvT0MGwuweHfvI+fv/fh4SFnv8NJd5KIZOyTZI5y8iIKDJfNzuCzncSly5wxQdAgTtkDnhuOJdccPIAHjSgNNZjP+eCHcJ8XVnSOgnA7wOguCPj6aHlIF/sAjYMvCOa5f/FpC84MTrMA1Cg/nHpmEOCTodiAMFgcj+p9JkeYe7i2Cis18U5t60W4OlDOPZaGWyPdWJ6AQhNdqK8wQpe1YRjYwkiV1wfx0/GAdzJY+5CAL5zDoy9MwonDxRvysy9DgT+AEABnS7FED0WVT2O/vYjfJTtNZztAkUKeC+G6howFNoMnXReM2s00G0CgFByz0q1E+27FAC8GLEKDdl7sBrNU2XYO3oMe651ofGtgCA0dVXouwCU/svphJFw3NYR+KDDF6674Qt44TwxhpFTLgDFSVb9YpFR1jMDaBv3InBuFp5rMem3rUUBAI3RGO+ZLXgx8NhduOuu1IskqjuF2lyniq9V79EBOGPm69wn+jC3JvEiTuCyD0AZNues7nKEThc/chAXC5PP1wFAAL5LAEo3SzzdG4t8sfuLL+DzADQ1B3B6ODK8CMHxnUYM8UDBrqP4cZw7m4C7y1CmAAIXLibvIe9tx9G+YgBjeK7VCudbffC1/AitD2qgursWL3xzDvv21KCoegj8Vw/g7K8PJQ5/M+WEA4Bhsw4hrwvuOR7BKSe8UMH4cOQV+zBgKEyxv0nAd94FoAJlGY7IbgZzPuCe9cLPGh0wI3UMrgfgHGxGSaEZgZd6UL/xgSQrZNlRXGoA4I4uLC1FAeP+o6gvAHz/uht9Z60Y2PsAevYboVOpUPzdPVj3H11o05eg7f31aP/p73HanKgz8mHylwHg7s3Y/Oc+uKe8CMEL13s8sM2ASDfLv9eGwjprwhX39GUFsEaHpuE30BRtqTy8B/fDWlCPH7VJynVmAN1nQgiFnOj+gbiXMAHF9U3QAJj+cLFyQuPNqN4r/K5Rq4AFJ95+owzfSNiGAvD8lgdUpUi2hfWmo1ovOCWz3uheOf7CfjT2eNPP1wU88PKAqqQ4hSDeAKTnx1LhOVRJSm0ldR22ke34oBheSUt1/S5Kea47SphGn0xzdlbEP2Ym/R3i+biKDho9PkqWF+uoXMkRV9xAg1Ox3ximsOTYoHC2si7u/J29Zel3By/705yTFM9TPjoo44zuzWPmh+WkVQvvR6kVQ2ypF0NraTdoSauMOWOo1pJWqyTuGTmnCEXknDs830tFcqJyBF1keUIrlkdNDf1CCCrTdi1xnJoqX7TRXGxFSCtUPP8cd07yYwvppd8d9pM/WWiotGUN0sSLeuLuUJN+u4nMT1eTXq0k5Ve6yJ7oM6+5qEsMMZbuDK/nTSF0lX6nmeq+oibtE4PkuSZG7FFXUvVDaqpMGA6NiOaFZ08fPOPmEjxpJi3HkdZoItN2Lakf0lMRxwk2kypowUkTcZySOpzSjCyQY6MiGYkdEVH44wkhTtqLFhp1zJA/w1hvYWuDrEAAREQUDpLHaaPR/i7h+45PkP1l/ZJKD451UK/kcPlcv564h2JCw4gGo+9fNKjwJ34Kpiu/GAgg19E3bglkGZKHejfJP1wfvjxD9uOD1Ntupt7DNrJ/OEgN0igk8x7a1ykNACHUn2lsMWWuX0+c0rQYbzAcJL8/RewzuWUNB8nv95PfL8M+iIjmbWRKI3ZEMZ8bjFN1Ci5JkzDVQcpciUOuiTzTJ2GiD3uFWIRp3q+rU5m7CEWybFQgY7FbNmKIF6lgyWXmZS1xXB0N+8NE82HyHDdTkbZriac416+P622D1rq4MDlzr3fR4Mle0qcJjCiEeJJGaMgTZBqS8I6yDJt0TYjXVvSSi8LzRGH/BFlqtVT9trRzEcUuEtVGDBUW9dKu2WnfK3YabOKi8f0SsayyJmOqg4oShSzKERPPKonb1Js8ptvNxjtMDRuUpHxyMaIOUZjsLUriOCWZTqaQOrH95yyKkEwbpRURu0gEYFnBO5fiOSCG/om5Eg5LnB2kjIhd0E4mrZa6ot6fn1xTcxS2NpA6lejeaoEec41cQxIj0Gb1nuZt0fBci0PuRLHbhBh3EbHz9JeTsjbG+3O7yHXNQ72b0gjZcsqakCCN7tTKCluVFWLwzpwHpl0GQoim+KF7JOCqusWeckpLfuBemci10ZUSu0jsqoQB/NIgDIMXG0bylztHg49qqaF/kMxfKacup/QuPw1vTz2c9r9ZfWOi5d4qZGBIYYc5y1Dn4tAyWqflZEkUbVn8Du2jHTT4Sh2VP7EYtjvKVAcp0wyhaFllXYrf2kBFT9uS2ODycXWqids5esM+Pxs8rxQRd08dDXuJiMLkP9lBRRxH2rgIwwkQO5qcCncGNrpCYhcJ5qgm08lMHzxIrte7yNxupt63PWmMIExBv/j/DaRcHqTKTb3kuTxKg44EzcNrofI7kje8vCADQ6JIwNUKy1IRSsdlG/W2m8n8ooUm0gnQtWDS+a2JZ9XUYA2S6/BwyqkJWk5Z4wjTjNVGnsTFWTbBkyZSp43qvALM+8nWLi6QKbWk395Fw+50hRQijyd3TrIkAxtdObEjIvrERuYNlZlFz80V53upyNhFlgMJPIRrdjI/VC32XHlMBoYkECZPfyVpn7Gn9a5yT5hGnywi04F9ZHHIaU4rWVYZfGyhyoc6aELOo9wCzB2qJH3nRG6FjjKz0Zz8K8Vblus8+NsUK35YftWSyb+pWxXw4K8roJB1BpfxmSADG5W/qfizCBO6zxhM6BjJyW+xYzAYeQMTOwaDkRcwsWMwGHkBEzsGg5EXMLFjMBh5ARM7BoORF+T3PjtGak414/ZvTMPwLUNckMXS3YfQtApj+zE++7jfasPhD2MSfE6MnCll++wYy+ROA5okQsdgrCo0go3KCQLKPDsGg5EXMM+OwWDkBUzsGAxGXsDEjsFg5AVM7BgMRl7AxI7BYOQFTOwYDEZewMSOwWDkBUzsGAxGXvD/lm59328w+NUAAAAASUVORK5CYII=;" parent="147" vertex="1">
                    <mxGeometry x="619" y="740" width="315" height="61" as="geometry"/>
                </mxCell>
                <mxCell id="88" style="edgeStyle=none;html=1;entryX=0.151;entryY=0.031;entryDx=0;entryDy=0;entryPerimeter=0;" parent="147" source="85" target="87" edge="1">
                    <mxGeometry relative="1" as="geometry">
                        <Array as="points">
                            <mxPoint x="640.5" y="650"/>
                        </Array>
                    </mxGeometry>
                </mxCell>
                <mxCell id="89" value="" style="shape=image;verticalLabelPosition=bottom;labelBackgroundColor=default;verticalAlign=top;aspect=fixed;imageAspect=0;image=data:image/png,iVBORw0KGgoAAAANSUhEUgAAABkAAAAbCAYAAACJISRoAAAAAXNSR0IArs4c6QAAAARnQU1BAACxjwv8YQUAAAAJcEhZcwAAEnQAABJ0Ad5mH3gAAAINSURBVEhL7ZYxaBNhGIbfOtXhQzqELMGKBFO0oOKRgIYLmEGQw6XQpZMpChLp4iJ1kSjo4BAyaZdS0cW6tIKaKOLdoCSLySLJICTbZRDuwBKhhdfhLva/o+LdUBf7bPf87/Fy33//cRMkiX3mUFjsBwclsfhfS3ZcdJ7dw82lO1j57IZXvXWrA3cn5BkZh/VraRZvb7D+sEiRFG99Cib6VY0iwtLroI/8JO7LRZSPPMf7B1dwOnkYgAuzNVASQ5jvegAyOJNRdPRxDfD00QBLN7IAfsJ6YwKYRCE7vRvZsrBpAZgsIHdcvTfyuBx2zS4dkrTXaIhQTlXYVSONMkWEcnVDtSTJiCW72I+LFBHO3g9UsH03TRGhsWoHPOPsiccQ9VctAEnMX1YHP4D1YQggA/18UvEeMUs6MC0AuITcWUVvtWB+8fajcELxPjFLfE5mEHiBrLdoAIChI6t6n5gl0zh2FMDXNnrjA/d9E4vX1wEABT0XSP8mvEl/pVdjcUoo5+ZYns8zNaNxNiEU0Vj7Fg57xC8hye0RHdumbTsc/XjBORFKusJ2OOcTvcT5yOULCSZmKmwqevwp0ap9xQaJXGKvGt5hkxLr277s1ZgXoeg1dsduDyKXjNYXKJLncsvxrjtPaKSEcrHCpqf+SOQS0mGzukAtnaBMpZjWS6w1+hyFY3swwYNfohj8k5JfyfxjgQzmSW8AAAAASUVORK5CYII=;" parent="147" vertex="1">
                    <mxGeometry x="604" y="864" width="25" height="27" as="geometry"/>
                </mxCell>
                <mxCell id="94" style="edgeStyle=none;html=1;exitX=0;exitY=0.5;exitDx=0;exitDy=0;entryX=0;entryY=0.5;entryDx=0;entryDy=0;" parent="147" source="87" target="90" edge="1">
                    <mxGeometry relative="1" as="geometry">
                        <Array as="points">
                            <mxPoint x="546.5" y="770"/>
                            <mxPoint x="546.5" y="878"/>
                        </Array>
                    </mxGeometry>
                </mxCell>
                <mxCell id="97" value="Valor objetivo" style="rounded=0;whiteSpace=wrap;html=1;" parent="147" vertex="1">
                    <mxGeometry x="691.5" y="847.5" width="170" height="60" as="geometry"/>
                </mxCell>
                <mxCell id="99" value="" style="shape=image;verticalLabelPosition=bottom;labelBackgroundColor=default;verticalAlign=top;aspect=fixed;imageAspect=0;image=data:image/png,iVBORw0KGgoAAAANSUhEUgAAAegAAABCCAYAAACcoEUwAAAAAXNSR0IArs4c6QAAAARnQU1BAACxjwv8YQUAAAAJcEhZcwAAEnQAABJ0Ad5mH3gAACCGSURBVHhe7Z19cFRVnve/8yxV01PunYb1ie2zROO6DWEwGh1C2HXzMhJpl2eS+JIE3YHNaEJCYSeZRxNc5aV0ErK7A+hCJ7ImwGBidhfTGTCdKdi+oNJxC6c7u5BGwTSUbBplttvS3W6LVF+LVP2eP+7tl9z0y+1XApxP1S3xnpvT9+V3zu+c83s53yMiAoPBYDAYjDnF/5KfYDCicsWI+qJ6mLzyAgaDwbhJ8ZpQX1QP4xV5QXphCpqhnAv9qPiJAff8wxuoVMsLGQwG4yZFXYk3e5fA8JN1GVXS32NL3AxFeHnU59UDvZ/iwGqmnRkMxq2H91g98hqBA58egC4D3SBT0IzYTNvQ9ieP4t1nTuCLnYXyUgaDwbhlsG26C4/aXsLY+83InScvTS1MQTNi4AXfmIfqsy0Y+7dNaRdIBoPBmNNM29HxYDF6Hx7Cp706pHMizRQ0IyrutyuwqGUSmyyfYNtD8lIGg8G4BTnTgftLu1D4TxdxoCJ9KpopaEZkvEZU31UP6wa2tM1gMBhBBPCNd6P6vQoMXDyQNqdZ5sXNiIAAfpMePHR4YytTzgwGgxFEBd2ru1AqGKF/hYcgL04RTEEzwnNmJ1oPCchp3YaaNI0OGQwG44ZlYS3a1qvgHWjFzvPywtTAFDQjDF4Y/34nnChE8/p8eSGDwWAwAJSub0YOnNjZaUzLLJopaMZszhvQfgxAxQbULpQXMhgMBgMAsLQRzcsBjOzAvkvywuRhCpoxC8v+LjihQuOGGqjkhQwGg8GQ0KB2YyUABzq6LfLCpGEKmjGTaR79+wVAVYuKh+WFDAaDwQhFtfpx6AAIAyOwTMtLk4MpaMYMhPf6YQSAJ3QoZUlJGAwGIzq3VeDp1QCEXvQflxcmB1PQjBmM8iYAgE5XIi9iMBgMxixUKFldCgAwHuHlhUnBFDQjyDSPdw8BQCkqi5n1+YZk2g3L/l5YMrjjDgB4z/ejd8ABtgspI1nSLUvpqF/zcAlyAeA9HjZ5YRIwBc0I8okVowCgKUS+Rl7IuCE4vhkVL7ahorYXbnlZ2nCiv64Jbc8vx5YP5WUMRjykW5bSVP/ifKwAAGEY5jPywsRhCpoRwHmKFzv14nyw6OfrgOBAV9kiNB1PPKLS9sEIAKBwzePI2BjLbQF/HoCqETXF0rkpHk0FFei/ILuWcXOSAtkFIsiSnw+bcMfzSS4hh61fAP/8clS87Zh5bVzko7AEANyw2VM3NGYKmhHA/h92AEBu/i2qnqcFOEZ70fF0MRb9aJF0LEdFSxf4S0l2PLGYdqDrseUYrPwtulclal5wwvqRAECHDesypp6B0xZYAGj0fx10LLxNh+5/1mHfnxWj66ZW0m7Yj5hg3LMFTS1NaPqVNMi9lUiJ7EqEkyU/gg9Csl7SYetXQWcYgO7gchTvSVRJa5C/XGxzFpvYj6YEYjCIiGiCdizjiOM4qjsqL8skLhr8WTZxHEd528flhWnDc8pAVVqOOG0VtR8ep0mPj4h85Dk3THrpvZTtniCf/A9ThLUtm7if9pFLXhAPrj4q5zjifjaYtvsMh7Utizguj9rPyUuIXAfLicvWk/mqvORm4SRtXqKl7AWijHArDDQpv+QmJyWyKxFNluhoHXENZvnZuIha/5d9VM5lk55PrPX4jFWiDCzbQRPywgRhM2iGyLQDExcAIBcP5soLM4kd/zoium84R0bhlBenHC8sm+7HXY9tgXvdCXzx2RC2PZmPHLUKgArqpZXo/t0YOh8CbNuWY91QKl1LJM50oL5nPjZ11Ca3LH3aAkvGE8xIs/blzWhcKi8DNOu2Y5O6H/WvpdJ1Zi5Ris7PLuKL9zcl9+1uVFIlu0BMWUqeGPUvrMX21vnor9sKWwIzddXCe8R2d2EiZf0WU9CZ5HIvHi3rStnHSymXnTgLAMjBncm3tCTQ4SVDJXIX5qN5Ry1y5MUpxQu+MQ8VPU7kd4zho1cLoZYvqwHAvFw0dzRCBYB/viPFyQikvOfLm9GY5H7bdtsocHczGjIZITdlg+U8ULkxQgc9Lx+NzYXw9nSgP8Oe5RlFPR/z5eduelInu4ACWUoWBfXnr29GobcXHQMJGCo0OVJ/dRaOFKX9ZAo6k0x/B++U/OQcwTEO0fqihvo2eWFmyX12AGOffYTOkvRuo+XYU47qQ16gpBtDv4ixbFCiQwXSkIzgUj92HAN0UToNZTgx+oEbhc2NYrhHpjhlAa9qRMMTkefsmidqUQoLdiblhMOYc6RMdiUUyFJSKKl/4eOoLQEsu3ql/jAO7s3FAwAABxyfywsTgyloBgBAmJKWbhcvSfOsdY7wcRse3WYHkItOg5IOJgdLFov/OnshdWsgzpF+OFIRdz5lg+VMZWadwwDYT5mR84uG2Q49oWhKoVsKOEf4ubl6xEiIlMmuhCJZSgJl9WtQuioXuGwCn8As+AfSf30p8ilNq4IWLvHoeqUJTZ0mOMPcsHDJAku6vWPjwgvHQAeaWjrQf1ZSWN/YYdqzRTx3Pg32x0SZcoCXPEc7Buzwhll29Z7nYVe4rOi+InWd81Rx2C9FD1bTEaP4nd8WvReFCxb0djaJ97bfEvz2017Yj3RhS0sTml7pgsn/jgPI6gv1iL1ih+mICaZD4t/3nw3xum5pEr/PGbfCLd+c6HqhV0xUUPESGu6Vl4dDgCDdruNc3GPrCLhhOe6II+5cgPuMSXw38u9+WwUO/Od+1KRy9UNwB75X4LcEYYYnbX7bv+PfWmPN2XOwolgFnOdhSWDlMO2EPGdTSwd6R50K5SgOpPZaXboIi0qr0dTZD/s38ouCyNuQY0qA9+Ne1JcuwqIfFWPLxzHucFqA+wwvtplox/HwfUds4pTdlMlSDKYcsOzvED3qX5kZfaG0/pzCUqjgAD8ar7DmIleybZ+9lKKhqNxrLGU4DFS2ZC0Z+D7Sa7nZXn7XzFQ3x7weJ3YXUdFWM5m3FhDHZVPrWwYqyy4g/b6TZD5YRdlcGfV8Kf+rOPjcQAUpeF6XcS1pOclr1H+s7JlZ7zUrtWqraNATejIyE7sKxHrk3ykqMg/Whj462VZERc09NMybybyvjvI4jrhl7TT+tZn0+UWk32emkxYzGSRP7aLdof6OUTxiP9hM2iXi33AcR3XvnKTWvygi/b5hMvNm6mnIC1NfBCytlMVxxHFZ1GqRF0bg2rAorxxHBbsU/IYizKTnOOLWKPC6viZ5t+frqYcfp4nTZurZmBfn91KOx9ZOZQs4ytvYQydPj9NwWxFlrSynsgUccU8NkkKxCuA6WE4cx5Gel5dcTzxk3V1FWo6jguYeMp+eoPHDm8VnXGmgiWv+61w0fng8+nv+3EAFcpmV8PCtlMdlU/l2M024XORyTZD55TLiuDxqtcjfpIdOtuURx2lp7W4zmflh8TtzHGWt3EEnbQYq4zjiNkbxZnb0UXm2rH+IeETwaI6JctlNmSzF8OL22NqpiMum8u2DdPLcBJ38l3Yqz86m1lPyK2Pgj4aI9o7DMkmGFVIfsVsuBYmRHgV9bZzal5VT35dERFZqzeKI4+poxuOekjrJKC88gGuQ1i7RkjbRo3YweuMiIro6SGuzW+nkNUkQOI44rogMDr/7vfjik+pgUqCgPUfrKJvjiFtWRfrtPdSzXU9VUhhQlTEo6q6D5VTwmvIwJXOD1GCVfA85p9sDA4YymYIM1JtVJr5LP1cHqYrjiOP0M+WCiMixI2JnN/6aVqxvgaw+/4AvXH0yxFALSSYDnXAMQp6xyhirSwplkvoa6qgv9F79OA1UpPCdiwpuLQ36w5WuWWmzNky7SgGeo3rSchxlN5hDOk8X9awUnz+rzTrjekVIbar8YMyWmCE8ZN6oJY7LprqjM1WERwqXydsuyfLpdtLGGghFUtCnWimb4ygvTFscfy1PVJCng+d8xrXEcRxpZ1w/Tu1aLvD9XTYzTUTSap+LMlXQYKDBw8M0/I6eCrKqaMfhYRo+3Ef6ZVlUtWuYhg9Lh2UypoINi0LZTaksRVPQ16zUmh3yzYjI9Y44KIxfWUp9SaxvPouggo7ruaKQHgUd+iL9HZvsYf0drdIG6/vaRS5XYodHSQzm0TrKfuEkUci9BT72OUlhaDeTVWmHHo5kFfQ1K7VmZ9Pad+SNykPmhuyQzmEiZICkjKQUtL9zCqPwJndLM/NZ9foVagEZPpcVRersotbnbxxh6ptBMN5byejfT+B3I9V/zUXDzWVU9lQ5FVSGzL6kjixsbLn0nLE7kEkylHDEZUkDSCKiq8O0dgGnbPAZD55hqssKKoNQzBvF91ZnmnleEVI/EPtZM8Nkd5HYkUptfgb+waO2ncaJaGJ7HpW9FeMth5XZCWq/T5SZHeEGaP6B6MqewDccfi7cIDDY8YeVowCTZCjRzhhw+IxVxD03LP2flVqzisjgDBTHwEWDLxvCx/Qqkd1Uy1I0Bc3rieO4Gd9pYlcBcQsKaEfIAEgZ0oAoTP8THR8NrkmiHw1DemzQD2zAiVd1AADbP3fBDaDy2TUhjjiixymQi5KHlRgwANXtGmg0iR2KvJIf2IDftJaKdtAxNwAN1vxfyV6xdBPGvv0W317sRGFUBwPR7jvLzhOw94zD8804zPLzgYOHQ26WDeXDfry7+gD2r8uR2YnV0O0dQOMl0cYnDHWgt6QNtQtnXJR+lj6I3AjvJ/c+ue0nFw+Gi0VUyOz6lOKU4r0BzdLFCu3tbphNkt15eQPWyG3W0w50lRVgeNVvcOI3I9j/YwOqfyVeL9gssKsaUbtK9jeJIPSi4o/vR0VdB3r/Ixf7v/oWF/tqFDi4KcfRvQVGAcAztTJ7th3W4wBQitLC0PMKiTMMKWo7inYcV7AJwpQRW16xA8hB83pxF6IZ3KaGGgDcNtgv8djxVn5izneXeJguA8ADyJccDGcwT5K+sXcweFn8p0pqP99djfkUYdCg9vAnOLDaH/0gYOQIj9KSFeL/XrLCIixG7t2hfxOFaTss3tyEowLSJktRsG1ahLtKq7FljwnCuo/w7X+PYVPcIWDzMf92+TklqKBOceBJehT0wkIULgQwbcFgnwCgEo+vDukKp2ywnAGgKkVpOMG9HgTu2QrLKADV43gs7g+bZlZ144teXXilMq8UumoLLDYn+v/RjsZwHQ9jBvPnK1QZ53vRNQYAajRub5ylEO2d1djCdeJvK8TWOX/+fDg/tsINYPQDPrLn6HQMR58AOVjTIH1PwQnL0E60lS/HHWVdcCTk4BMJG/btEZ1bap4UB9gB3HbY3ACW6lAqfwE3GG5jP0wAoFmDyrCDRL/HvgumV1pxtq0zMee7QOhiBAJhOXaMnxNPlTwpJpmxnp0IXjfthusbAKoaPB01xl0F9e2h/ewI3h3Jha5E+mDnYtyPnDEensIIaX9jym6GZemRWjRLdXnP8Ojatg7Fixah/lgiA525Q3oUtJ+xEfQLAFY/jopQAT9lAQ8A5SVQOoASvnHD7U7siCv2eGwUI4jv3kJRL9Wh8snK8MeqBzH/9gfxmPx84NAhN4kRWO59+Th7aAu6ECFTDiOBmbsXxl/uhBOA+pkD2PbnsuIrvWh93YkafTBUy+PxAF97IcAO6/FCND8bYQ7in0EpQLNuBF/9+wh2/U0tdA9JQnJmC9oSSagQiUtWWASIM5sfy8psYg5jVfGKxMLwvB545OeiELUdRTtW5Yqz3yjYbRbxH6tWRNgURiXNZB3gnbUY0Cf0xMA8f9BNBAJKToUF0lhRtXoDGm4HhP3rUd1phOmIER1VVehy56Bx6A3o4hgouAd6wGsqUSKt+DgviamIlOI49T9Y4VfucmLJbjplKRzzCtH5yUV81NeJ5upS5Kggtt2fdySw/aMHnige9pER4E3xeCCtCtpps0AAkF9SOGPWZz9lBoDg0kss3EasLypC0U8SOwqeNypOYO84Jd6z4nubQ+TcuxiOERPyU5U44KZECvkB4LCHJLX/xobelgoUl2+BKSQ0zTvyIvTHADzUiRN7dbM6f8fbXbChBk8HlrAlE8n3AVwehaVwQ2RTwzxAFSts60I/1hUsQvE2G7C4FI1bujFk+QJf7BVnJZ6pWDOZBFDlYolMgGyj4i5ZFSWFANzgf7UTlng6I9ck3ADuVMfo2DOBtOqQH9NMokFz16aIZpuYPFAIcd0jQmapQPY+HVaIU2ng40HsKzyALy4OoVEzAf7Dccz/qwGM/dcn2BVP4p5pO3q7bMAj8kHIV3DF6gynHLAcMWKf0QnX53a4w01wlMgu0iRLM/DC8koxFhWsQ//vNch/shmdvx7BJ78/Ic6oBSGugaGIG5NuAP9bHX61MiJuuKToKpVa4epcDNKqoP0svjd0nOTE6LH47M/Q1GDgs4u4mOih2E7nhvVDBwANChUF981FalAbLVNOBHJypc7K4bjpk0kUbtwm2tWGBmGcAuDlUf+YAXiuG0N7V2D48TbYpgHvaBuK1hohaGoxZGoO01HbMfi2E1j8A3g/ccJ93gLTkX6YbADuy0XOH5Rg26sVkRv53bli5+n1Roy75Xc3wXTBDfuZiRm2VbVaDSAHukeUzEG84Fvux1133Y+maEt+mjvFGc29OTPbi9eEnj4haDOcGkXvfgHz49AXbvdXAFTIzb3+7crvvzD/tghf5ooFlksAMB93JmSLlNCsQfM6NQAHrKdnf2HhtAUOAOoNLcEldM//QDg3gcnb86Fbvw3dhk40P1OK3DhmzgAgvLcTOy8DOp18TdwCy2nZKT+CE6aWYhRvsgB/6oNr6Qa0LLSjtWDRbLmJJbtplKUZXO7H1jftcF/gcTZ04DFPLdZZUQr5G4iJ24WvAKh+tESh3phNTnaifzmTtCpozUKxIQQzLwlwvL4OW87PMfuzn2n73LU/K+WZp6GbpUhi43dOwXeygqgI8LrdcDtd4ij1Gxcm3W64vQIw5YXb7cakSxy/elyTorlB8JsrJkW7GjxwOd1wu70Q5PVNe4ImCiGR+iJwbzMGOvIBmPBioxGWtzvgbHgdjQ/lQHN3JV76q0nsaKlAXnkvhFW7MPZJN3ThOpDLo+DdQM6PH8D3J+2wOrzABSt4AdCtLAEW5qN0cQQlAAT3kD09Ed02uLgWAz0hqyKCAzt3GaF+5nW0KFmuv9yPjred8Hqd6N9kiPxbt1Xg6QoA562w+WdNggM7K9fDOA0Ad+BOjbh06nh2TYTl4fA4z1kBlARniteRnGe3oUYFWIaG4Qy14U97YdtTjUWPmnDnIxoADow7AFzh0fG6JYLzWZQ2ABV0f3cAtRrA9IIeptBl029M0L/AiyszfxdiTMu5BzmXd6L4T/zbnUpbntY1iclN3BGlOgQn9u0yAfIsX9Ky9MhxaYk/lGkHuh67Hzv/dD8+2tuI0qmzQEkJNEtrMdDzOAZ/Ls9BH0N20yhLs1GjtOO3M8xP3pEdMFzIR+erCWwcc+ksrABK5oKwyt26U4s/1lBLZc/VUfmSbCpYJgbdp8oNPaX4QyXSdW/JhlnFwNqWRUXdidWe2FZp/lAp2dFgDglLmnnUHQ2GjMw86sgcob6C3ZMhsenx1Bcdl0lPBf6kKCWtNHh4kAwvV1FRFkdc/lrqORUabOojnzwm62gdcZx2Rhyr+Nzl1BcjKsfPxPa86Nd7TtLmZRxx2QVU/pye6n5aQNlZWVT0spk8ikP+JqnvKSl+PNZ78f+etozqnisnbXYBbeY9gfj7PF0ZaZfEu32k9I1CwomuO44+cXvRJeVU16ynqhItZWcXUd1bVvG9esxUl80Rl19GZUu0pJfFSgcJL7Mz+hDfJA03F1HWgqxAboasBVlU1DxMk3KZ8k3QjpIw9QWObCo/GKOF+mOU5duOnmsXEwdVzo7vndieR9x97YG2P7m7LhhO+LmBCsKEFyqW3VTJUoQwq4mDVaRdkEXakirSN1dRkTaLspaspZ5z8perDLENJ5KUKigLcYWPRSHNClrE5wnGI/tjjONL9pApfORxecinuOOLk7QqaDF2L+FEKgEFGKMDv9nweWjCMkyDuzeT/mUDDR4+SebXCmbFx3pMrdQuz0h0tI44ro6GA/IiKqKsBrPi+Gp/pxmrPfjbkCsp+ZygHcuUfV8x74Dst656Zp9TgpSZKWYsccbxkcefL+HrMO//mliuKI+CEqT6Ir7DaxNivHvJDhqX/+Y1H7lO99DabC5sXLEc39cu8oR5JN/X4X5bzA0QzJDnor6ftZI/1YY4eK+a/ZtKZTdVshRBQROFvlsXucI9uGJc1PfTRAeTQQWdcD8sI20KeuLgWtJmZdHafwl5zKtmMXA9q075qOlmwtlDZSvTpKA/N1BBtNFsLALJRpKo4yZBHERWUZ/LR3TNRxOH9ZSn3RzosAJICjrQZZxupzwuvgQxgaxKCXUIceLqo/K4syMlj+utMkVK5ZZHyq4YNRmJSRxIp0oBiIiD+6p3pFWCa2bSB9JcigorO2xmrAzKLsVQ0Kniyx4q4zhaG2PQEZZAHzp7tSFR0mSDtmHfSya4BQGOgM3EC/6FehgFNWr64gsXuGm4uxEn3m9OXWhBCO5RHg6lievDcXeOFJPpgju8se2WQfWH8wHwaFp0B374R3dg+c/7cc+Wltlhdw+sCJ6bdqDr/3Xhnr37ZV7bTnSVLsKWM6HnQtGgcXsj1GNd6I14TWqwv9UFVD+WsONLQkjexDmtmxKLJb6VkPYTPns+rFUXAOC4cBZAIR5Q4nugmHw89oQao6NW0W8jEP/she2X1WjzyezkATInu5nCvr8Ltrs3YVMCjrZwOyUH2weQK09mlChyjZ0axBR32U/1iSkPfS4y+xPAGzMy1rrlMG9MNv9rMAVmQvYTnyfJpSUZX06SK47lL9+X42Tmx2ky3FJlnPjzIfuPmXmEQ/GRuVlLZW091P5UEVVFsA16vnTFWPL2kXlj9qx0uKnEY2unopIdIRtAZAbXwXLi7mun8Qz/7o3KxMFyyvZvrBHSnnyeCRpuFv06yrrDy1lSXHPRcHMR5ek2U3tDGVW9oKeqvygTbfLya2eQftkNkO4Z9Jd9VC7LjR4PAT+eFJox06SgiejLYdKXiDsTZWkLqPzlPhr/Wn4RIzVMkmFFAru2yPDnAY5/tyYX9VVyYkcsL4oDn8dFk6fN1PNyGWmVLhNdmyBDZRFVbe+hnu1VVLCAI61/YJgwHrK+tZn0zXpqf2ciRgcV2d5H/jIlS7uS/VHRblwJ4DraR+ZMtz+HgYoWSBvOMBTjc41T3/YqKlqiDey6pl1SRFXb+2jcFUHQUsW1STJU6mk4kkCHI82yGyCdCjoFzxDYyCfuXbAikz4FzcgovqtxNKgI+DcQCCbXV47LZKAeWyxVFp3xg3pq3zdMJ3evVWzHsb6cTeX7Qsbup0XHlfA2s8wy+dZm6jnaTgUlCkfUvgkyrNSSnk/+W153rppJv6w8/C5ejLnLDPtzHGRCdj/QU1Yi9xYTH5k3FsT2jo+K5FwWxwZQSmAKmhHEv/OYtIvPdeNonUIF7Q+xCt2hR9qJJivohXp9cJH11CT5jGsDu6QxGHOe0+1Ul0IFc+sg7Y8tC7tMljQ5iTFuSB56DI+rALh5jEq768TE64BpTxf6z14Pz7IcVLbVoubZFuj+2H9OBVW4pCIZR4PCP1dh8G0rGv+abVzCuDEQ1JV46cmMuhHeHFyww4rUJ7liCpoRQiF0TwCAHRabgoxFUzya6gahfuT7MBY9ii5/vuFpKbuSoiNKxi8F5FR344ChJpiG84oF5guA+udrZntdZ5orw+ifrMWaO4zoPZ7MUzIYmUF1b35SG/bcqrhPjcIBQLWuIqX9DlPQjBmU6CoBAPyRkZiK0z3wLtQvb0Pp1AVYcWdw3+3vnBg/ZYVV0eGAN2VbJnph2rYVtnsbMbA1lc0kQbxuuBcK4A/5UPpIAmEbDAbjBkDA6DExfWrFqtSuln2PiEh+knELM82j/o+qYUQNhv77QNS83oLXC6jVsL54Byou7MLF36ZoF61j9fjh02fROT6G5jjiCR17irH8sA4nTNtQOFdmAVMChNtU8ecDZjAYNwZTRlT/n3rwqkaM/H5X+L3fE4TNoBkzmadD7XoVACP634s+h1ap1VBN8+jfL0D37JrUKOcE8R6rx7oPGjD2vqichUi77GQappwZjJsa4di74AHk/KIhpcoZTEEzwlG6Xsx2ZjLGXuYW3uuHEZV4erUKzqFecV9XrxH1gZ14YhwFTeCT9S+70IX6Q3+J3/6mVrJFO9DV0nvTb5vJYDCuN270/yMPoBDNz8baXzx+2BI3IwwCjGvvQP1IbsxlZr7xh6jGEL7dq0FHix2Ne1OwzB1piXvKhHV3rYPp4e7gcvqFflQ81QX1yhUIbpHuhOVqAz75tWhPZzAYjLRwvgP3/9lOOCsO4Kt/SmBryxgwBc0IjyR47vUj+OqNyI4PzjeLUTSqQ+M8B+a/OoDmJPb4du6vxqOv2yG43aLjmFoDzR8Ca/ZeROcjktf4kmr0e2sx9G03dHCiq/T+sHmuNa0f4eKrye0yy2AwGNGwvHgHKvbnzJ5MpAimoBkREMA33o3qQyvQ/dmIbAOImQjfuPHdbRqoUz18jAD/fBOwtxs6eQGDwWBkiiu9ePRHbXBsOIEvdqYnaoTZoBkRUEG3803oYEHbL/motmjV7ZlTzpi2wTJdCDY3ZjAY1w8B/C+3wqaqwZtpDOlkCpoRGXUNDvxaB+FQPbZ+LC+8PjjeNEC1MQV2bgaDwUiUj7ei/hBQc+ANVKYxpJMtcTNi4AXfmIfqY0/jxH/uQmGKwwjiRfAKUGVsus5gMBgypu3oeLAYvQ8P4dNeHdKon5mCZihg2oGusuXYkZt+gWQwGIy5izRhcbyEsfebgymG0wRT0AxleHnU51XD+w9fYKiaqWgGg3Hr4dhTjOW7FmPo0wPQZaAbZDZohjLUOhx4vxvfvZCH+mPJZhZhMBiMGwvvsXo8uisHB36XGeUMpqAZcbG4FiO/ewPofBEmpqMZDMatgteEFzt/gDfHB1ATJeQ01bAlbgaDwWAw5iBsBs1gMBgMxhyEKWgGg8FgMOYgTEEzGAwGgzEHYQqawWAwGIw5CFPQDAaDwWDMQZiCZjAYDAZjDvL/Ab6uZ37/GlgsAAAAAElFTkSuQmCC;" parent="147" vertex="1">
                    <mxGeometry x="585" y="1030" width="488" height="66" as="geometry"/>
                </mxCell>
                <mxCell id="102" style="edgeStyle=none;html=1;entryX=0.4;entryY=-0.035;entryDx=0;entryDy=0;entryPerimeter=0;" parent="147" source="97" target="101" edge="1">
                    <mxGeometry relative="1" as="geometry"/>
                </mxCell>
                <mxCell id="103" value="Calculado&amp;nbsp;" style="text;html=1;align=center;verticalAlign=middle;whiteSpace=wrap;rounded=0;" parent="147" vertex="1">
                    <mxGeometry x="786.5" y="949" width="60" height="30" as="geometry"/>
                </mxCell>
                <mxCell id="105" value="Se ajusta automaticamente minimizando la siguiente función función de perdida" style="rounded=0;whiteSpace=wrap;html=1;" parent="147" vertex="1">
                    <mxGeometry x="326.5" y="620" width="165" height="60" as="geometry"/>
                </mxCell>
                <mxCell id="107" value="" style="shape=image;verticalLabelPosition=bottom;labelBackgroundColor=default;verticalAlign=top;aspect=fixed;imageAspect=0;image=data:image/png,iVBORw0KGgoAAAANSUhEUgAAAWUAAAA3CAYAAADUtFvzAAAAAXNSR0IArs4c6QAAAARnQU1BAACxjwv8YQUAAAAJcEhZcwAAEnQAABJ0Ad5mH3gAABTfSURBVHhe7Z1xcBPXnce/vWGmukkXw3BCtFHjayLHDnExTYQ9vRrpEgflmNhOqTHJxQxJDHZLbNO7Mb5rQ7lmML67GtKCTXK1cY7aYeYaK4HYziW16KXIuSEncUMs5+AsZ/BYHOlJHXKVOjDaDMz87o9dWdLz7kqyF1jgfWbejPXerrW77/f77dvf+77VF4iIwOFwOBxD8EdsBYfD4XBuHjwoczgcjoHgQZnD4XAMBA/KHA6HYyB4UOZwOBwDwYMyh8PhGAgelDkcDsdA8KDM4XA4BoIHZQ6HwzEQPChzOByOgeBBmcPhcAwED8ocDodjIHhQ5nA4HAPBgzKHw+EYCB6UORwOx0Dc5KAsInjwMRS84IHINs0LEZ4X1qDqF0G24Y7A07gYixfLpdHDNt8C6G0PtwliEN0VBWg+ocNV+U0zlr+wENu4s31MjdArj2FNmxcxtmEWD7YmfHPxYmx9j21P8gVdXnJ/LQL/iA9hth4AkIdClxOFd7H1QPDgWqw5tgmn/60FhYvY1nlyLYjuijUY/M5pfPD9Qrb15hMLwvN+MOegk/egC877TWx1Gp7GxXhjwx/w2nq25dZgjj18GsCwfwohvxfBK0B+1W60rbOwu93e6G3P723F4uNP4Q+9LrYle/Q+puvJlRhCUz4EZkSY7nPCtSqP3SINcdqLMXE1XCu1t5tLDJ7GYmzFa/ivXhe09s7op6QHZzqpvMhGtiIb2awCCYJUzDYb2R5updHL7A5EdKqVrEIl9V9kG3TgYj9VClZq8sTZlptPdJJGjw1RT0Mx2Z7voaFjQzT0ehPZrXXUdWxI+nysh/a01FC5WSDhW63U/6MKsh+YYf/THEYbBKp/l629RVCyh/dfJFuRddaesrkGtxu+nVYSnuinMNswX96tJ6FhlK3NHSP7GBFFA/3U9C3zrO1IxUov+tktk8z8vIIEQaDKI/O82ld91GoVqPyQtp1m8lN9gnIKcXeNdAHMreRjGxNcHac9DwpU/NI426Ib4y8Vk2BtJd9VtsUgBDvJvl12jlOtVLF/kt2C6GqUfC+Vk81qzSogZepsw5LBHsZfst2ZQfnMHioWimnPGbZhAegVlI3qY1ejNLqzmISldqo/MEhD3pN08l9ayS4H5hq3yk3k6klqNQskCHU0qDSIzJKou4YEdnDBkMlPdc8pT/jGpD8eKcMqtlEm9nY79l0oRcu2ErZJN0q2taA01ov2oxG2yRgsMgHX5L+jv0dskUJqYlEeSn/8Dl5e9znbcluRyR6WLFnCVt0BxOD+x30IrWlB4zfYNmOgu48tON8dg+eFYmzsWYKO/ziN175fi2qHE86nXbOxaEWegp8BEN8+jF4RQNWTqFJItWZL3rdb0GjyYtcBP9uUNToH5SC8v5Gypc71DiiffggD+z3A+u9iy91sm47c/SS2OADv/l7cilMSwZd3wh0BgDxU11axzbcRN8gebjWmB9D5HuDavgWGzaLr7WNiHGJioDIPYm9uxcZfxlD4t4fQcn9Kw7XEDE4hCu9LqZ9FxMjxYQBA7eZalbiVJYuc2PSsCbGeLrivsI3ZoW9QjvgwNgUAFpSWqJjS9DAGzmkFbb2wwLmuELgwDM8022Z8gme9CCc6dd0r+PW2fGaL24QbZg+3FqGRAQThRPVaI18VY/nYzOVCdLz1MT7YxTxxTQcxAQBYhcJ705sAAFdG8MYIANTiqXVsY+6UPloFYBi/kpMGuaJvUPZ74QUA05N4XOWRKzLmQVAraDOIU170djSjeUczdh0cRuAzdgt18kudMCEIz5hOj1c3ipgbA2+mfF5kQt4CHqmuFwvpmwS52oMSYiSAgY6tqLIXYE3lVuw66EFIQ96SetztfV4Er4iIfdiLrc4CFDywFrs+1NgZ0sgr8pEHw8eHtcuJAGLzGvlF4D0RBCylyOqyiBEEjndj145mtB+Vv1MU5z/qvBKEt68dzTua0fzDbnim1a+HkXys5LkOtKzLn3NzFyd80kj+G6uhpBUR33sDHgBY/xdw6KECe8gJJ4CR9+eXwtA1KPvHRqQ/NPLJAb8XQAmKUh8vlPh0GM32xVj+RDci99Wi5Xu1WHGmFWu/VoDm95JqQHHKC++UitHcuwplALz+ANtiUETEzg2jueJFBLQ0NTcbPfpGJmt7UEREsKcKBQWb4c/fgUP/+u9459UdyD/ThK8XVGFgit0+Bm/b17Hcvg1jX6pGdZULljPNWPPl5Sj4UQxb9u9A/qcBdL+uMcSZGkDV15ajwLkRm5/drF1qNqNrzjFkQwD+MQAPFSkGkVRip9vx2FcKsPnEF+F6vgElgWYUPF6Fx76yHMufcmvoZpWJnW7H2i8/hv2RItR+rwW1JVF0Owuw80N2S5lbwMcS81yWRx2Y+7wpYuS4lMd21VbNCejzwlKEQhMg+n0IsW3ZwM78zZ9J6nxYmuFUl5TMUJdDIEGoJ83532AXVSwVSHB00WTqzK48S5+cIY3T4CYztZ5K2SaNUaoXhBwkRWEa3CJL++ZV6mgwuy8iOt9F9sQs+Lv1adKdmtfDNNRgp67z7E7aZJrV1QXd+oaytoeZA3ZF9UX4SKU8ox5NqyeK0uAmgQShhgZTmuLuOhIEgWxpKo9x2mNLHnfYP0qT7L9LcL6LygWB7A1dNJiQMpprqPPYEA0d66emh81Usz8haxyiIe8Mqcz1S7b2gy5S0NwQhaTvyaSSiL7bRDZBIGvDKCUPOUw9j8qS1J0K+ict9YUs6Sremzyq8OvSNWavfZJcfUwDrWObD/EohcPj1FkmXY/6Y2EKh9kyKB2/UEn9GicQj87QuOckTV5S79EkM9RVpq5Ay+Sn+gXlcD9VCgIJgk1DwiMfbFkXqXUxXR6lJqtAglBBPQqykoQ8qsYdJ7o8SHXWVjqpKsmRHU7r+1guRxU6LsuSVYfJMEE5YfTx8EnqqraRsNSAQVnXvqHs7EEtKF8epDpBCuhDSt8xLN3ozH99crZq6Hn5ppcmi5KPQch07Waoy2Gj+neT4S/uriHh+SH5k49azeXUFZpt1ubqKDUlJJEs57vIzp4vS3SI6lUkXKPb5fMZTq8nyhD4PE0kCAJV/DwZnSb320lYaqdOVZ+eh4+poXVsORJ215EtTaOcoagef5R8eyvIVr2HBo8NUc92O9m2p94ElYjLgwLlwUYmP9UvfZFFPjkbggdaMRADUKU8G5+QR435JhDq60Tgew1wquaBlmDJMrYuA3flwWKxzK8sW/jDj8niRMtbfWhUPafciZ3LIv+pVE4E0x5/9e2bBTL2KwwDwMrVKFH6DrlO7HNL+UIAJrnu88u5PtQDgAVbjn2M19Yn8krSY6/TUSZ9nPbBK96PwntS99HgtAfRUmUJYDYED+2CWwTw9BbUps03BOA7AQBOOEtT67PH31aArzo3YtfBYYibP8Af/u802lR9Ojcfi5xWsLNEORUCQt659bPFj0hWeXIR0WWb8HL/URx6Tk4AOdpwtP/onLJbntgzrS1TSG0A+LAdNQdXo++t3ajdUI3GV99BW3AjNv9CK4duQt4C0o+6BeXZfHKlA+q2kGnywY/DB6UsjGuDcn4n/14pWy1Od6J1/yq8/FeZsm63IIuccH2brbzZXI++yWQP6oSmpPl0VQoTkzo+BGVlgGODJHfyTUwmt7sWQfgzAKZaPOVIVs/FhLzUm+6VEbwxUgiXQ56JOzuekywseOr3KEvsyzIr4VIj2Re1G5jl0pEA/BEAK11wqvx7VR7ZghZ5n9hHHnTv3oy1BQXYmjJPcGtgQuEj1aje4MIffyb1iuu5NlRvqGZKCUyXpD2qHMpRy3OkF7FHylA2e+O3YPVDJniPDM4vX5wFuQdlMYZIjDWaFH1yYuSgiGl2tKLIBR98IgCUwFmq5PbJERBOjCHv1Z/CpalKiCKaqyLgSgyRSGR+5TP2uswf189+jYbUUdd0Nx5r86ZUZE/eSpeCQWZR1hUm1/Dr3jfIbA9aKC22SWU2sK2YVa6Y1n8XDcsAsW8bNna4MXzcjfaaGnRH8tH4ZjbHmyRytAceSzUcssQqNJ3hJpHgShDe424cdocQPh9AREnLmuncpn3wipBGww8xbfITq+rIT4tFpej4+BN80N+Blo1O5JsgLWJ5th3qOoLcfMyyRsHOEuXP8oF859z62VIKSy72cm0MvxoBoCYtvBbA+EcAUILVig8tQQTOAMjLSxuEWKz5wEdaN2ERsQXcx3ILylPdWLv8qyj4agF2nU6pn9Unp4wc1PgigHMqJ3QN8ot6SjI/Bq7bj59WZXpGiGAmAuBP0i+qOhG4X7Cj/M/L51fKt8kLPnTgrry0gOX/p07EVqxI3eLGonvfyGjZgwb5D5VJfaq27/lJqf6eUpQlTPLDQRwufQ3/88mbaLRMwvObcSz5y6M4/b8fY78jy+OF5My93X7gkTKk+/LvEFbrfzGE4R1rsbbNC9wXR3jld7Hj7gBa7emKFUC6uZkABM8qnlkSUyGKGHdLPLFKI78IPD/ZB2/GABGD94drUWDfjIHfWlCyoQUd/zyCj3/7a2nkLIqIsrvMkquP3UBOvAE3ADhq8bhSWPo4AEmXoZZ2CmFSVT0zheAFti5BBOEQANNSzGctak5B2X+4HZLw5XN8nvLYGXl7QMonr9yCaiVx9iz5KHwQAGKIKY0Q7imUpHQmk8rJxOA/JY9Ilq3QfBMTACASxu8AmB4oynJVlAW1/Z/gk/+ebzmK2uy+KAck2VddTwyr7s+UDriO6N03QGZ70OKbLdj9DQDww3eObQQCfsndnDsbk7Ky6O8hnp3EzLISuLbtxqGuDrQ8rfwGQy3Et/dh3wXA5WLzHV54zzBVkN+q9vjXse++PnzwaiOcVyYAhwOWlVtwtOdJDD7bDm9qGueeQinYx2LKbxO0rJBGwffmp9t1bBg9/WIyn3xlDL19IpZk6owLA/jRKwFEpjyYSL2pLMqT9q1ygj3TWXL2sRuH57gbAOB6bpPisYnnA4hAmpfI3bPE5GsS5hBBaBpA6arcn1ZyDcpf/FIeYCpBY/9p7P2mXDnVjY1tfgAl6BhoyXgQJaVOAAHlO9AiF/7mx4WA+AYGx9LNUZweRrO9GE2xVVLOeiKIEIBA3064FZwSADA9AR8AR5maavomcjEE3C2byn1FADsquiYiMtaLrfYCNF3ajd1PF2L1g+mb3FD07hsZTXsQpVTSTFgap0XDM4hEIpCyZ/loOdyB0kUh7Nu+D8GUQxLP7UPzyxHkPf0mjj6X4o75f4r8C/uw9msFKHggUdagqr4ZzR0DCEQUQyBDCIf3D899JJZTDiMn5qaYgj/ZiF2ftaFPfs1lyJ+ST7bmI1/0YiJt1FWCUgeAM/Jon+WuKjxVBeCcD/7EzUwMYl/1NrivAcByrLBIKZbgc5uY0bwaeXC2v4PdCb8GEBvpRNdUCTp+rLH02Kg+dsWNgV8CQDWeWq989JFP5azw3XnSQONaBO7GAixevHneS6QBAJFJBEXAsqZE8WaQEVaOoUl0lJps5lmd5uDeGkl28nATDSlIpBQ5u4eKNbXMUTr5AzsJgpnKNzVR0/OVZLdayfbEizR0XpIyTR4oJ0GwUsUTdrI+yuhlU5CkVMryrZvGmU4qT7yO0pzQN0ufrQm9sy3llYNLrWQrspF5aZOivCaVTFKbhaNf38yiZQ+MfjtR0s7xko+6nrHNXidbkZWEpTaqO+CjKPvd8UnqdMz9f8lipcojisrhJAkN8TOD6Rpk+TyEalavK+n37bNvAQxT/zNJ/ar0VsWaObK2yb3F2trZ6El68WGBBFsF1T9fSTarnV70RCn6bj1ZBYGKXRVkK2qa+9pcFdnZ5JEasi01k81RQ00tNVRuM5O5qI56zmrLPHX1MZVjmw8JTXqqJJJltCHR78XUdLiH9nynmATBSnXuxEWX114wxySds7LcjShht2Zq9bINEpn8NLegTNKr8cY9g9T1gybac3iITp6NagjklZiUFhlsYoyaJUUvHFXYMB4NUzis9d1h6n9CIOHRnoWL2m8RMnW2biy4b1LJ0h4yEU8ck8r3Xp2UFqo4OmmcDVRX4xQ+00N1VkFR98sSv6Ry3peiFGdvBLKOt+Z1Wdmapk+WbNSqtMhDDvKqr5qUiV+Szzn1ey9H59Yl0Ap8V+MUTWjulU5wDjr7mNax5USU+qsFsj3TRT4NQXFiYUyipA4uEow2zF0YM7pdS9dM5NtpJsGsrtHP5Ke5B2UdCP+8Qr+7qxoXe6hCEKgug1HfTmTqbKNyQ+zhVCuZ2VE2i7zgpMnDNiwM304rmRtGpZvFqVaqOxKWFiW8VE5m1acJeWWeXgEvgW6B7zr42PtNZFZbUHOdiEczLPrytpI5LcBK/ZK6wCYN+b3MqasiWTL5aU45Zb2wbP17NOb50d13/dbLB/q64b+nDW3fVs4ncYzDjbAHWPKRD2DinGKWFgAQnJoAUIpVK9mWhVH6D/+JPlM71jy+C+1HxiFOtGNjeQ16VryMT1R/Cs2Cxr2NyDvdjd6P2DZjoLuPPXIIv3t1AT9TNQ9MeRkWfTl24+jGIWx7theBC0F42uqwb8khvLJVOVsce7sbvaILf9ec+9ThLGyUvlHEPU1zf/5HLy72U6Xev9hwC5DpDmxkrqs9yEweqSSrYKXKvaM0mfJ4Ho9O0lCLtJS74pD6CGfBXJ2hruomGsoqNUBEFKfR7Ub+Oag7x8fiF8dp9NgojV/U6Dv53SFz38WSTiY/vWlBmRKTQuyLbRaKnDssP3AdncugZOpso3Nd7IEhHh6n/r01VF5kI7MgkCCYyVZUTjV7+2k8rOFweqD1vgs19LZnPYKy3sd0WxCl0QYr83IoZTL56U0NykRxmjxQQbbtcr5twcRpdLs98wz6bUpyNnnujPGtgd72YDDO7KF6JZVJJuKT1PWoTZ8fKV1w3vbO9jE1Zg5VkH3nSY2ALL9NT0lBxPAFIiI2pcHhcPRHnA4gtKwEhZkWc3DuaHhQ5nA4HANxU9QXHA6Hw1GGB2UOh8MxEDwoczgcjoHgQZnD4XAMBA/KHA6HYyB4UOZwOBwDwYMyh8PhGAgelDkcDsdA8KDM4XA4BoIHZQ6HwzEQPChzOByOgeBBmcPhcAwED8ocDodjIP4fEVzC1p2TJ+8AAAAASUVORK5CYII=;" parent="147" vertex="1">
                    <mxGeometry x="56.5" y="754" width="357" height="55" as="geometry"/>
                </mxCell>
                <mxCell id="109" style="edgeStyle=none;html=1;entryX=0.904;entryY=0.025;entryDx=0;entryDy=0;entryPerimeter=0;" parent="147" source="105" target="108" edge="1">
                    <mxGeometry relative="1" as="geometry"/>
                </mxCell>
            </root>
        </mxGraphModel>
    </diagram>
</mxfile>